<?xml version="1.0" encoding="UTF-8"?>
<svg width="1200pt" height="1200pt" version="1.1" viewBox="0 0 1200 1200" xmlns="http://www.w3.org/2000/svg">
 <path d="m58.156 725.25 421.16 304.09c16.473 12.277 36.469 18.91 57.016 18.91s40.543-6.6328 57.016-18.91c37.887-30.418 59.285-76.871 57.777-125.44v-152.04h428c11.434 0.078126 22.777-1.9844 33.449-6.082 27.465-12.84 50.465-33.598 66.043-59.605 15.578-26.008 23.023-56.082 21.383-86.355 1.7188-30.336-5.6914-60.488-21.273-86.574-15.582-26.082-38.625-46.902-66.152-59.766-10.672-4.0977-22.016-6.1602-33.449-6.082h-427.24v-152.04c1.9336-48.973-19.508-95.953-57.773-126.57-16.426-12.398-36.441-19.102-57.016-19.102-20.578 0-40.594 6.7031-57.02 19.102l-421.16 304.09h0.003907c-38.605 30.621-60.453 77.699-58.918 126.95-1.2969 48.605 20.223 95.02 58.156 125.44z" fill="#492f28"/>
</svg>
