<?xml version="1.0" encoding="UTF-8"?>
<svg width="1200pt" height="1200pt" version="1.1" viewBox="0 0 1200 1200" xmlns="http://www.w3.org/2000/svg">
 <path d="m87.426 745.77c10.672 4.0977 22.016 6.1602 33.449 6.082h427.24v152.04c-1.5078 48.566 19.887 95.02 57.773 125.44 16.473 12.277 36.473 18.91 57.016 18.91 20.547 0 40.543-6.6328 57.02-18.91l421.16-304.09h-0.003907c37.938-30.418 59.453-76.832 58.156-125.44 1.332-48.527-20.031-94.902-57.773-125.43l-419.26-305.23c-16.473-12.277-36.469-18.91-57.016-18.91-20.543 0-40.543 6.6328-57.016 18.91-37.938 30.379-59.344 76.859-57.777 125.43v152.04h-429.52c-11.48 0.16406-22.828 2.4883-33.449 6.8438-27.527 12.863-50.57 33.684-66.152 59.766-15.582 26.086-22.992 56.238-21.273 86.574-1.6406 30.273 5.8047 60.348 21.383 86.355 15.578 26.008 38.578 46.766 66.043 59.605z" fill="#492f28"/>
</svg>
