<?xml version="1.0" encoding="UTF-8"?>
<svg width="1200pt" height="1200pt" version="1.1" viewBox="0 0 1200 1200" xmlns="http://www.w3.org/2000/svg">
 <path d="m1100.4 380.39c-42-86.391-124.78-129.61-212.39-175.18-30-15.609-61.219-32.391-91.219-50.391l-52.781-86.438c-3.6094-4.7812-9.6094-8.3906-15.609-8.3906h-256.78c-6 0-12 3.6094-15.609 8.3906l-51.609 87.609c-31.219 18-61.219 34.781-91.219 50.391-87.609 45.609-170.39 88.781-212.39 174-31.219 61.219 39.609 156 103.22 198 51.609 33.609 99.609 33.609 127.22 1.2188l43.219-52.781c21.609 111.61-9.6094 208.78-44.391 320.39-15.609 50.391-32.391 102-44.391 158.39-1.2188 6 0 10.781 3.6094 15.609 61.125 74.391 178.74 118.78 310.74 118.78s249.61-44.391 313.22-120c3.6094-4.7812 4.7812-9.6094 3.6094-15.609-12-56.391-28.781-108-44.391-158.39-36-111.61-66-208.78-44.391-320.39l43.219 52.781c27.609 33.609 74.391 33.609 126-1.2188 63.516-40.781 134.34-136.78 103.12-196.78zm-337.18-208.78-76.781 102-60-48 99.609-116.39zm-163.22 28.781-88.781-104.39h177.61zm-126-91.172 99.609 116.39-60 48-76.781-102zm-172.78 446.39c-20.391 25.219-62.391 2.3906-79.219-8.3906-61.219-39.609-108-117.61-91.219-151.22 27.609-56.391 76.781-92.391 135.61-126 36 61.219 58.781 122.39 76.781 171.61 4.7812 14.391 10.781 27.609 15.609 40.781zm19.172 447.61c12-51.609 27.609-99.609 42-146.39 39.609-123.61 75.609-240 36-375.61v-2.4375c-6-14.391-12-31.219-19.219-49.219-19.219-50.391-42-112.78-79.219-176.39 9.6094-4.7812 19.219-10.781 30-15.609 26.391-13.219 52.781-27.609 80.391-43.219l87.609 115.22c6 8.3906 18 9.6094 25.219 3.6094l60-48 0.046876 838.82c-111.61-3.6094-207.61-40.781-262.82-100.78zm517.22-146.44c14.391 46.781 30 94.781 42 146.39-55.219 60-152.39 97.219-261.61 100.78v-838.74l60 48c8.3906 6 19.219 4.7812 25.219-3.6094l87.609-115.22c26.391 15.609 54 30 80.391 43.219 9.6094 4.7812 20.391 10.781 30 15.609-38.391 63.609-61.219 126-79.219 176.39-6 18-13.219 34.781-19.219 49.219v2.4375c-40.781 135.52-3.5625 251.95 34.828 375.52zm140.39-309.56c-16.781 10.781-57.609 33.609-79.219 8.3906l-58.781-73.219c4.7812-13.219 9.6094-26.391 15.609-40.781 18-49.219 40.781-110.39 76.781-171.61 58.781 33.609 108 69.609 135.61 126 16.781 33.609-30 111.61-90 151.22z" fill="#492f28"/>
</svg>
