<?xml version="1.0" encoding="UTF-8"?>
<svg width="1200pt" height="1200pt" version="1.1" viewBox="0 0 1200 1200" xmlns="http://www.w3.org/2000/svg">
 <path d="m823.45 257.76c4.3594-2.625 8.6719-5.25 13.172-7.9688 1.3125-0.79688 2.25-2.0625 2.625-3.5625s0.14062-3.0469-0.65625-4.3594c-28.641-46.922-64.734-78.844-110.25-97.688-0.046875-0.046875-0.14062 0-0.1875 0-0.14062-0.046875-0.1875-0.14062-0.32812-0.1875-86.859-26.297-170.39-27.234-255.42-2.8594-0.14062 0.046875-0.23438 0.14062-0.375 0.1875-0.09375 0.046875-0.14062 0-0.23438 0-45.562 18.844-81.609 50.766-110.25 97.688-0.79688 1.3125-1.0312 2.9062-0.65625 4.3594 0.375 1.5 1.3125 2.7656 2.625 3.5625 4.3594 2.625 8.7188 5.4375 13.078 8.1562-68.719 163.26-115.64 326.02-139.31 483.74-0.23438 1.5469 0.1875 3.1406 1.1719 4.4062s2.4375 2.0625 3.9844 2.2031c46.781 4.4062 91.828 16.688 133.92 36.516 0.79688 0.375 1.6406 0.5625 2.4375 0.5625 0.98438 0 1.9688-0.23438 2.8594-0.75 1.6406-0.9375 2.7188-2.5781 2.9062-4.4531 10.312-106.12 34.031-231.42 68.578-363.61 6.4688 33.422 9.9844 63.375 9.8906 86.953-8.4844 23.906-9.2344 46.594-2.25 67.547-65.203 153.42-56.25 241.31-46.734 334.26 4.5 44.109 9.1875 89.766 5.1094 143.21-0.09375 1.5469 0.375 3.0469 1.4062 4.2188 0.98438 1.1719 2.4375 1.875 3.9844 1.9688 2.625 0.1875 5.25 0.28125 7.875 0.28125 27.891 0 55.781-10.312 83.156-30.75-1.8281 10.359-3.9844 21-6.7031 32.156-0.375 1.5469-0.09375 3.1406 0.75 4.4531s2.2031 2.25 3.75 2.5312c54.609 10.594 103.12 15.891 146.29 15.891 40.406 0 76.125-4.6406 107.62-13.922 2.625-0.75 4.3125-3.2344 4.125-5.9531-4.125-54.047 1.2188-101.91 6.375-148.18 10.453-93.422 21.188-190.03-43.547-342.61 6.9844-18.75 7.7812-38.156 2.4844-59.016 0.32812-0.75 0.51562-1.5469 0.51562-2.3906-0.1875-23.016 3.4219-53.297 10.031-87.234 34.5 132 58.172 257.11 68.438 363.1 0.1875 1.875 1.2656 3.5156 2.9062 4.4531 0.89062 0.51562 1.875 0.75 2.8594 0.75 0.84375 0 1.6875-0.1875 2.4375-0.5625 42.094-19.828 87.188-32.156 133.92-36.516 1.5938-0.14062 3.0469-0.9375 3.9844-2.2031 0.98438-1.2656 1.4062-2.8594 1.1719-4.4062-23.719-157.82-70.641-320.63-139.4-483.94zm2.1562-14.812c-16.688 10.031-33.188 20.109-49.359 30.234-42.609 26.625-82.922 53.859-117.94 83.531-52.828 44.719-90.188 91.734-117.38 147.42-5.9062-0.42188-11.766-0.98438-17.672-1.5469 36.797-138.66 98.625-215.16 176.63-311.39 9.0938-11.203 18.469-22.781 27.984-34.688 39.75 17.391 71.812 45.703 97.781 86.438zm-101.86 317.58c-84.281 8.7656-169.26 9.6094-252.74 2.5312-5.2969-17.062-4.7812-35.531 1.5469-55.078 13.828 2.1562 27.703 3.8438 41.625 5.2969 0.09375 0.046875 0.14062 0.09375 0.23437 0.09375 0.65625 0.1875 1.3594 0.1875 1.9688 0.09375 9 0.9375 18 1.7344 27 2.3438 0.28125 0.046875 0.5625 0.1875 0.84375 0.1875 0.14063 0 0.28125-0.09375 0.42188-0.09375 60.234 4.0781 120.66 1.6406 180.47-7.5938 4.9219 18.562 4.5 35.719-1.3594 52.219zm-264.42-172.97c-6.7031-29.859-15.422-61.641-25.781-93.609 40.688 30.047 79.828 64.031 115.69 100.55-14.391 31.781-27 66.75-37.594 106.97-12.422-1.3594-24.844-2.9531-37.219-4.9219-0.375-29.203-5.7188-67.031-15.047-108.75 0-0.046875-0.046875-0.14062-0.046875-0.1875zm135.61-76.453c-14.062-23.672-29.109-47.203-44.953-70.641 15.844 1.7812 31.781 2.9062 47.766 2.9062s32.016-1.1719 48-2.9531c-18.141 23.297-35.109 46.453-50.812 70.688zm121.08-158.29c-8.5312 10.594-16.969 21.141-25.125 31.172-12.141 15-23.859 29.484-35.203 43.828-38.016 5.25-76.359 5.3438-114.09 0.1875-18.188-26.25-37.5-52.266-57.75-77.906 77.203-20.625 153.37-19.734 232.18 2.6719zm-243.89 0.89062c43.5 54.797 82.406 111.38 115.97 168.32-12.094 19.406-23.344 39.656-33.75 61.359-54.562-55.125-116.53-104.48-180-143.21 25.969-40.734 58.031-69.094 97.781-86.438zm-98.344 614.48c-39.328-17.625-81.094-28.875-124.31-33.562 23.766-154.36 69.844-313.55 136.97-473.29 10.453 6.75 20.812 13.781 31.125 21.047 12.328 36.094 22.594 72.328 30.188 105.98-37.078 137.68-62.578 268.74-73.922 379.78zm58.406 272.44h-1.2656c3.375-51.891-1.125-96.281-5.5312-139.31-9.3281-91.078-18-177.24 45.141-326.81 15.75 1.3125 31.594 2.3438 47.438 3.0938-14.297 33.984-26.016 133.18-25.078 155.11 1.3125 30.656 7.2188 59.25 13.453 89.531 10.922 53.062 22.125 107.72 11.719 182.21-28.5 23.953-57.328 36.141-85.922 36.141zm333.98-133.55c-5.1094 45.469-10.359 92.484-6.7969 145.64-61.453 17.016-139.45 16.266-238.13-2.3438 3.375-14.578 5.9062-28.453 7.7812-41.812 0.046875-0.32812 0.14062-0.60938 0.14062-0.9375 10.969-77.812-0.84375-135.66-11.578-187.69-6.1406-29.812-11.953-57.984-13.219-87.703-1.125-26.438 13.547-133.22 25.969-154.03 17.719 0.70312 35.438 1.1719 53.203 1.1719 46.828 0 93.797-2.4844 140.58-7.3125 62.719 148.74 52.219 243.47 42 335.06zm-40.5-410.53c-57.047 8.9531-114.7 11.672-172.18 8.3438 46.406-92.438 117.05-150.74 214.69-212.95-10.688 32.719-19.734 65.578-26.766 96.469-0.5625 0.9375-0.75 2.0625-0.70313 3.1875-9 40.312-14.344 76.922-15.047 104.95zm100.55 274.5c-11.344-110.86-36.797-241.74-73.781-379.22 7.875-34.922 18.469-72.516 31.125-109.59 9.7031-6.0469 19.641-12.188 29.906-18.422 67.172 159.84 113.34 319.18 137.11 473.68-43.219 4.6875-84.984 15.938-124.31 33.562zm-106.5-130.31c29.953 88.641 17.062 149.39 5.7188 203.02-5.4375 25.734-10.594 50.016-10.594 75.188 0 2.6719-2.1562 4.7812-4.7812 4.7812-2.6719 0-4.7812-2.1562-4.7812-4.7812 0-26.156 5.25-50.953 10.781-77.156 11.109-52.406 23.672-111.84-5.4375-197.95-0.84375-2.5312 0.51563-5.25 3-6.0938 2.5312-0.84375 5.25 0.51562 6.0938 3zm-178.26-336.42c-1.125-1.8281-0.51562-4.1719 1.2656-5.2969 1.8281-1.125 4.1719-0.51562 5.2969 1.2656 6.3281 10.406 12 20.203 16.922 29.203 1.0312 1.875 0.32812 4.2188-1.5469 5.2031-0.5625 0.32812-1.2188 0.46875-1.8281 0.46875-1.3594 0-2.6719-0.70312-3.375-2.0156-4.875-8.9062-10.5-18.609-16.734-28.875zm-13.5-35.578c1.1719 1.7812 0.70312 4.1719-1.0781 5.3438-0.65625 0.42188-1.4062 0.65625-2.1094 0.65625-1.2656 0-2.4844-0.60938-3.1875-1.7344-23.766-36.047-47.062-66.656-57.891-76.172-1.5938-1.4062-1.7344-3.8438-0.32812-5.4375s3.8438-1.7344 5.4375-0.32812c11.484 10.125 34.734 40.594 59.25 77.719zm147.98 32.156c38.719-34.266 66.656-52.688 106.73-70.406 1.9219-0.84375 4.2188 0 5.0625 1.9688 0.84375 1.9219 0 4.2188-1.9688 5.0625-39.281 17.344-66.703 35.438-104.77 69.094-0.75 0.65625-1.6406 0.98438-2.5312 0.98438-1.0781 0-2.1094-0.42188-2.8594-1.3125-1.4062-1.5938-1.2656-4.0312 0.32812-5.4375z" fill="#492f28"/>
</svg>
