<?xml version="1.0" encoding="UTF-8"?>
<svg width="1200pt" height="1200pt" version="1.1" viewBox="0 0 1200 1200" xmlns="http://www.w3.org/2000/svg">
 <path transform="scale(25)" d="m32.485 19.608c2.382-4.765 2.232-7.4441 1.638-9.0809l5.955-2.383-1.787-3.87-9.378-3.2741s0.14797 6.1041 2.53 9.6759c0 0-4.7641-0.29797-7.443 2.68-2.68-2.978-7.443-2.68-7.443-2.68 2.3809-3.5719 2.53-9.6759 2.53-9.6759l-9.378 3.2741-1.787 3.87 5.955 2.383c-0.595 1.637-0.74406 4.3159 1.637 9.0809 2.383 4.7641-0.14797 8.7841-0.14797 8.7841-7.4441 8.635-3.127 18.608-3.127 18.608h23.522s4.317-9.973-3.1259-18.607c0 0-2.5309-4.0209-0.15-8.785zm0 0" fill="none" stroke="#492f28" stroke-linecap="round" stroke-linejoin="round" stroke-miterlimit="10" stroke-width="2"/>
</svg>
