<?xml version="1.0" encoding="UTF-8"?>
<svg width="1200pt" height="1200pt" version="1.1" viewBox="0 0 1200 1200" xmlns="http://www.w3.org/2000/svg">
 <path d="m412.11 37.5c-20.719 0-37.5 16.781-37.5 37.5v131.25c0 22.273-11.531 51.957-29.68 65.852-16.461 10.312-22.352 31.574-13.312 48.918 13.555 26.023 40.836 82.051 55.914 138.54 9.375 35.117 14.383 70.387 6.5625 97.781-21.844 76.332-145.01 255.56-210.73 348.23-0.054687 0.09375-0.11328 0.16797-0.16797 0.26172-11.738 17.23-13.012 39.523-3.2617 57.957 9.75 18.43 28.875 29.961 49.727 29.961h74.926c-5.793 16.367-3.75 34.574 5.7578 49.293 10.387 16.031 28.145 25.707 47.23 25.707h82.555c-0.019531 12.676 4.2578 25.105 12.336 35.195 10.668 13.312 26.812 21.055 43.875 21.055h169.03c17.062 0 33.207-7.7422 43.875-21.055 8.082-10.086 12.355-22.52 12.336-35.195h81.637c19.199 0 37.145-9.8242 47.457-26.043 9.3359-14.68 11.289-32.758 5.5312-48.992 18.918 0 40.367-0.019532 75.883-0.11328 20.758 0 39.844-11.492 49.574-29.887 9.7109-18.375 8.4766-40.648-3.2422-57.824-0.054688-0.09375-0.13281-0.14844-0.1875-0.24219-65.625-92.719-188.77-271.97-210.62-348.3-7.8203-27.395-2.8125-62.699 6.5234-97.855 15.02-56.586 42.148-112.69 55.332-139.01 8.6445-16.836 2.9805-37.426-12.844-47.531-17.867-14.512-29.512-44.289-29.512-66.695v-131.25c0-20.719-16.781-37.5-37.5-37.5-11.832 0-26.98 0-38.605 0.11328-19.238 0-35.438 14.832-37.105 34.164-4.9297 54.094-36.938 96.977-93.039 96.977-56.082 0-88.125-42.863-92.98-97.051-1.668-19.312-17.887-34.18-37.332-34.199h-38.438zm0 37.5h38.438v0.074219c6.6953 74.551 53.137 131.18 130.31 131.18 77.156 0 123.62-56.625 130.41-131.14h0.054687c6.3555-0.054687 12.73-0.054687 19.086-0.074219l19.199-0.039062v131.25c0 32.832 18.262 76.238 44.812 96.938 0.41406 0.33594 0.82422 0.61719 1.2734 0.91797-13.93 27.844-42.094 86.57-57.805 145.74-11.23 42.281-15.73 84.844-6.3008 117.8 22.48 78.617 148.24 263.81 215.91 359.44 3.8438 5.6992 4.2383 13.07 1.0312 19.125-3.2422 6.1133-9.582 9.8828-16.48 9.8828h-0.039062c-43.5 0.11328-82.445 0.14844-92.98 0.14844-38.305-82.086-91.18-195.41-91.18-195.41-4.3867-9.3945-15.523-13.445-24.898-9.0742-9.4141 4.3672-13.48 15.523-9.0938 24.898 0 0 68.289 146.36 106.35 227.93 2.6992 5.8125 2.25 12.582-1.1641 17.98-3.4492 5.3984-9.4141 8.6797-15.824 8.6797h-88.594c-22.012-99.094-59.211-266.57-59.211-266.57-2.2305-10.086-12.281-16.48-22.367-14.25-10.105 2.25-16.5 12.262-14.25 22.387 0 0 44.363 199.69 64.855 291.86 1.2188 5.5508-0.09375 11.363-3.6562 15.789-3.5625 4.4453-8.9258 7.0312-14.625 7.0312h-169.03c-5.6992 0-11.062-2.5859-14.625-7.0312-3.5625-4.4258-4.9141-10.238-3.6953-15.789l64.895-291.86c2.25-10.125-4.1445-20.137-14.25-22.387-10.086-2.2305-20.137 4.1641-22.367 14.25 0 0-37.199 167.48-59.211 266.57h-89.512c-6.375 0-12.301-3.2266-15.75-8.5703-3.4492-5.3438-3.9766-12.074-1.3516-17.867 36.602-81.469 102.66-228.38 102.66-228.38 4.2383-9.4297 0.039062-20.551-9.4141-24.789-9.4492-4.2578-20.551-0.039063-24.789 9.4141 0 0-50.887 113.14-87.75 195.19h-91.52c-6.957 0-13.312-3.8438-16.555-9.9922-3.1875-6.0391-2.8672-13.332 0.88281-19.051 67.895-95.738 193.65-280.93 216.13-359.55 9.4297-32.961 4.9297-75.543-6.3555-117.8-15.883-59.512-44.492-118.52-58.82-146.04 0.52344-0.32031 1.0703-0.63672 1.5742-0.99219 27.148-20.008 45.602-63.562 45.602-96.562v-131.25z" fill="#492f28" fill-rule="evenodd"/>
</svg>
