<?xml version="1.0" encoding="UTF-8"?>
<svg width="1200pt" height="1200pt" version="1.1" viewBox="0 0 1200 1200" xmlns="http://www.w3.org/2000/svg">
 <path d="m1087.5 124.82c-4.125-15.703-8.4375-31.922-11.906-48.094-1.2656-5.7656-4.9688-10.594-10.406-13.594-6.3281-3.4688-14.438-4.125-21.281-1.5938-22.172 8.1094-44.906 14.109-69.375 20.531-25.781 6.75-51.562 11.438-76.688 13.922-0.89062-0.046875-1.8281-0.046875-2.7656 0.046875-19.312 1.6875-38.906 2.2031-58.266 1.4531-0.9375-0.046875-1.8281 0-2.7656 0.09375-33.188-1.6406-66.703-6.8438-99.984-15.609-24.094-6.3281-46.875-12.281-69.047-20.438-6.7969-2.4844-14.953-1.875-21.281 1.6406-5.4375 3-9.0938 7.875-10.359 13.594-3.5156 16.125-7.7812 32.344-11.906 48-5.5312 20.953-11.109 42.562-15.375 65.203h-7.7344c-15.844 0-29.016 12.984-29.344 28.969-0.375 18.234-1.7812 35.156-3.7969 51.234-25.406 60.375-81.797 97.875-147.42 97.875-65.438 0-121.69-37.312-147.19-97.406-2.0625-16.219-3.4688-33.281-3.8438-51.703-0.32812-16.031-13.5-28.453-29.391-28.969-16.547 0.046875-47.062 0.09375-61.781 0h-0.14062c-8.8125 0-17.156 3.8438-22.875 10.594-5.8125 6.8438-8.3438 15.844-6.8438 24.703 7.4531 45.656-15 200.81-19.781 218.68-3.9375 15.047-8.8125 30.094-13.5 44.578-8.0625 24.75-16.359 50.344-20.438 77.438-10.172 68.156 18.516 124.26 49.078 170.48l-0.09375 46.125c0 8.2969 5.625 15.516 13.688 17.531 86.062 21.188 174.66 31.828 263.16 31.828 83.297 0 166.6-9.5156 247.87-28.312 2.8125 36.984 8.625 71.812 14.203 100.97 7.5938 39.938 14.672 85.125 21.469 128.76 4.0781 26.156 8.0625 51.703 12.047 75.234 2.8594 16.969 12.891 26.578 30.656 29.344 19.547 3.0469 23.25 3 36.047-0.75 2.8594-0.84375 6.4688-1.875 11.719-3.1875 7.6875-1.875 13.219-8.5312 13.688-16.406 0.46875-7.7812 0.84375-15.516 1.2656-23.25 0.89062-16.922 1.8281-34.406 3.3281-51.375 1.1719-13.125 2.4375-27.188 3.7969-41.719 3.5156-38.484 7.5469-82.125 9.9375-117.8 1.5-22.406 1.4531-45 1.4062-66.844-0.046875-12.797-0.046875-25.594 0.23438-38.391l0.1875-9.0469c0.46875-22.172 0.9375-45.094 3.0938-67.078 3.4219-35.25 7.3125-70.453 11.203-105.66 3.5156-31.875 7.0312-63.75 10.219-95.672 0.65625-6.3281 2.25-14.156 4.2656-22.031 2.0156 7.875 3.6562 15.703 4.2656 22.031 3.1875 31.875 6.7031 63.75 10.219 95.625 3.8906 35.25 7.7812 70.453 11.203 105.75 2.1562 21.984 2.625 44.906 3.0938 67.031l0.1875 9.0938c0.28125 12.797 0.23438 25.594 0.23438 38.438-0.046875 21.844-0.09375 44.391 1.4062 66.797 2.3906 35.578 6.1875 77.203 9.8906 117.47 1.3594 14.625 2.625 28.875 3.7969 42.094 1.5 16.828 2.3906 34.172 3.2812 50.953 0.42188 7.875 0.84375 15.75 1.3125 23.672 0.46875 7.875 6.0469 14.531 13.688 16.406 5.25 1.2656 8.9062 2.3438 11.719 3.1875 6.7969 1.9688 11.016 2.9062 16.406 2.9062 4.7812 0 10.453-0.75 19.594-2.1562 17.766-2.7656 27.75-12.375 30.656-29.344 3.9844-23.578 7.9688-49.172 12.047-75.328 6.7969-43.641 13.828-88.781 21.469-128.68 9.1406-47.953 19.125-111.09 14.953-174.05l-0.28125-4.0781c-1.7812-26.953-3.4688-52.453 0.1875-78.094 6.7031-47.109 17.344-95.438 27.703-140.86l4.3125-18.75c18.375-79.734 35.766-155.06 33.938-235.74-1.0312-47.672-11.859-88.594-22.266-128.16zm-422.44-25.172c19.875 6.6094 40.219 11.953 60.234 17.203 36.375 9.5625 73.406 15.188 110.11 16.781 1.0312 0 2.0625 0 3.0469-0.14062 18.891 0.5625 38.062 0.14062 56.906-1.4062 0.98438 0.09375 2.0156 0.046875 3 0 27.984-2.5781 56.719-7.6875 85.734-15.328 19.734-5.1562 39.984-10.5 59.859-17.109 1.0312 4.3125 2.1562 8.4375 3.2344 12.703-123.28 55.828-262.08 55.828-385.36 0 1.0781-4.2656 2.2031-8.3906 3.2344-12.703zm-247.22 304.4c47.062 0 90.141-15.797 124.13-43.688-29.344 68.719-78.094 101.25-124.03 101.25-45.891 0-94.594-32.484-123.94-101.02 33.938 27.75 76.922 43.5 123.84 43.5zm-290.16 167.21c3.6094-24.141 11.109-47.203 19.031-71.625 4.875-15 9.9375-30.562 14.109-46.547 4.0781-15.188 27.75-166.4 21.375-227.11h48.797c5.7656 186.56 100.45 271.6 186.94 271.6 86.484 0 181.18-85.031 186.94-271.6h48.797c-6.375 60.656 17.297 211.92 21.328 227.02 4.1719 16.078 9.2344 31.641 14.156 46.641 7.9219 24.422 15.422 47.484 19.031 71.625 6.6562 44.719-6.0469 87.984-42.375 143.63-162.32 35.438-333.42 35.438-495.74 0-36.375-55.641-49.078-98.906-42.375-143.63zm49.406 197.11 0.046876-15.281c79.031 16.172 159.89 24.375 240.79 24.375s161.76-8.2031 240.79-24.375l0.046875 15.281c-157.87 36.656-323.81 36.656-481.69 0zm863.68-287.76-4.3125 18.844c-10.5 46.172-21.375 95.297-28.266 143.81-4.1719 29.344-2.2969 57.938-0.46875 85.547l0.28125 4.0312c3.8906 58.875-5.6719 119.06-14.438 164.95-7.7344 40.5-14.812 85.922-21.656 129.84-4.0312 25.875-7.9688 51.188-11.906 74.531-0.23438 0.046875-0.46875 0.09375-0.75 0.09375-9.2344 1.4531-16.078 1.5469-20.484 0.28125l-0.23438-0.09375c-0.1875-3.5156-0.375-6.9844-0.5625-10.5-0.89062-17.062-1.8281-34.734-3.375-52.219-1.1719-13.266-2.4844-27.516-3.8438-42.188-3.6562-40.031-7.4531-81.422-9.8438-116.58-1.4062-21.141-1.3594-43.078-1.3125-64.312 0.046875-13.125 0.046875-26.203-0.23438-39.328l-0.1875-9.0938c-0.46875-22.828-0.98438-46.406-3.2344-69.75-3.4688-35.438-7.3594-70.828-11.25-106.22-3.5156-31.734-6.9844-63.469-10.172-95.25-1.9688-19.5-16.172-70.5-24.328-78.422-8.2031-7.8281-23.25-7.8281-31.688 0.1875-7.9688 7.7812-22.219 58.734-24.141 78.234-3.1875 31.781-6.6562 63.562-10.172 95.297-3.8906 35.344-7.7812 70.688-11.25 106.12-2.2969 23.344-2.7656 46.969-3.2344 69.844l-0.1875 9c-0.28125 13.078-0.28125 26.156-0.23438 39.281 0.046875 21.234 0.09375 43.172-1.3125 64.312-2.3438 35.25-6.1875 76.781-9.8438 116.91-1.3125 14.578-2.625 28.688-3.7969 41.859-1.5469 17.578-2.4844 35.391-3.4219 52.594-0.1875 3.375-0.375 6.7031-0.51562 10.078-0.09375 0-0.1875 0.046875-0.23438 0.09375-4.4062 1.2656-11.25 1.1719-20.484-0.28125-0.28125-0.046875-0.51562-0.09375-0.75-0.09375-3.9375-23.344-7.875-48.562-11.906-74.438-6.8438-43.969-13.969-89.391-21.656-129.94-8.7188-45.844-18.281-106.03-14.438-164.9 0.14062-1.8281-0.09375-3.5625-0.51562-5.25 28.266-44.484 52.875-97.781 43.359-161.68-4.0312-27.094-12.375-52.688-20.438-77.438-4.7344-14.531-9.6094-29.531-13.547-44.719-4.7344-17.719-27.188-172.87-19.781-218.48 1.4531-8.9062-1.0312-17.906-6.8438-24.75-5.7656-6.75-14.062-10.594-22.922-10.594h-0.14062c-4.5469 0.046875-10.734 0.046875-17.484 0.046875 2.9062-14.344 6.4219-28.453 9.9844-42.281 64.734 28.406 133.22 42.75 201.79 42.75 68.566 0 137.11-14.344 201.84-42.75 8.9531 34.312 16.688 67.734 17.484 106.03 1.7344 76.172-15.188 149.34-33.047 226.82z" fill="#492f28"/>
</svg>
