<?xml version="1.0" encoding="UTF-8"?>
<svg width="1200pt" height="1200pt" version="1.1" viewBox="0 0 1200 1200" xmlns="http://www.w3.org/2000/svg">
 <path d="m1125 867.5c-22.5-12.5-150-80-225-120-80-42.5-95-30-122.5-35-100-15-237.5-202.5-582.5-550-15-12.5-30-20-47.5-17.5-62.5 10-175 227.5-142.5 332.5 42.5 197.5 42.5 417.5 42.5 480 0 15 10 25 25 25h112.5c15 0 27.5-15 25-30-12.5-65-22.5-220-27.5-310 102.5 120 217.5 302.5 220 305 107.5 142.5 510 107.5 685 77.5 45-7.5 107.5-22.5 112.5-67.5 7.5-42.5-55-77.5-75-90zm-355-105c10 2.5 25 2.5 37.5 2.5-72.5 52.5-117.5 57.5-127.5 57.5-2.5 0 0 0 0 0-2.5 0 2.5 0 0 0-112.5 2.5-392.5-312.5-487.5-587.5 327.5 330 457.5 512.5 577.5 527.5zm307.5 217.5c-145 25-545 62.5-635-57.5-5-10-155-247.5-272.5-362.5-15-15-42.5-5-42.5 20 0 10 10 242.5 27.5 357.5h-57.5c0-87.5-5-287.5-42.5-467.5v-5c-22.5-62.5 50-207.5 82.5-250 45 220 362.5 655 535 657.5 57.5 10 145-50 190-85 20 10 215 112.5 235 125h2.5c22.5 12.5 47.5 32.5 50 40 0 0-7.5 15-72.5 27.5z" fill="#492f28"/>
</svg>
