<?xml version="1.0" encoding="UTF-8"?>
<svg width="1200pt" height="1200pt" version="1.1" viewBox="0 0 1200 1200" xmlns="http://www.w3.org/2000/svg">
 <path d="m931.59 838.02-121.16-227.99 65.52-275.05c5.0547-21.223 2.7656-43.781-6.4648-63.52l-36.988-79.121v-122.02c-0.32812-17.945-27.668-18.953-28.125 0v113.73c-30.785 8.3516-58.566 32.781-83.176 65.914h-242.38c-24.609-33.129-52.391-57.559-83.176-65.914v-113.73c0-17.828-27.867-18.969-28.125 0v122.02l-36.949 79.098c-9.2461 19.738-11.555 42.297-6.5 63.539l65.52 275.05-121.16 227.99c-18.738 38.184 23.465 70.477 60.461 82.746 12.434 3.2031 16.172 9.9961 22.797 23.875 5.1445 10.73 10.969 22.906 23.695 32.629 6.6211 4.8125 10.512 11.715 13.914 19.445 5.293 11.371 12.523 26.953 27.008 35.102 10.523 8.9492 10.766 35.559 22.836 45.316 22.262 20.613 11.461 51.984 44.879 64.453 18.504 7.3633 39.191-4.1797 47.262-18.055h137.47c8.0391 13.773 28.773 25.535 47.262 18.055 33.422-12.477 22.598-43.863 44.879-64.453 12.062-9.7227 12.375-36.289 22.832-45.32 14.484-8.1484 21.719-23.73 27.008-35.102 3.4141-7.7148 7.3125-14.617 13.918-19.445 12.727-9.7227 18.547-21.898 23.695-32.629 6.6289-13.879 10.363-20.672 22.797-23.879 37.145-12.219 79.07-44.641 60.461-82.746zm-48.906-32.117c-26.645 20.277-99.414 81.648-163.75 188.21l81.641-342.73 82.109 154.51zm-180.42-527.82c-8.8711 14.398-17.289 29.738-25.188 45.703h-154.14c-7.8984-15.965-16.316-31.305-25.188-45.703zm-82.957 193.54h-38.609c-4.6328-14.727-9.7266-30.094-15.297-45.793h69.199c-5.5703 15.703-10.664 31.07-15.297 45.793zm-8.5469 28.125c-13.168 45.266-8.3555 45.184-21.512-0.003906 0 0.003906 21.512 0.003906 21.512 0.003906zm34.234-102.04h-89.977c-5.8828-15.309-12.172-30.68-18.895-45.793h127.77c-6.7227 15.113-13.012 30.488-18.895 45.793zm-288.96-114.35 33.602-71.926c71.918 20.504 131.61 162.77 167.19 277.96 13.16 42.582 23.625 83.766 29.426 111.22 2.625 14.492 24.891 14.559 27.504-0.019532 25.637-117.6 100.12-361.07 196.62-389.17 0 0 33.617 71.926 33.617 71.926 6.5547 14.008 8.1836 30.027 4.5977 45.098l-182.7 766.96h-131.76l-182.7-766.96c-3.5898-15.07-1.9609-31.09 4.6133-45.098zm43.402 368.04 81.637 342.73c-64.336-106.57-137.11-167.94-163.75-188.21l82.109-154.51zm93.434 463.5c-5.1289-1.7031-6.7188-5-10.82-17.305-3.7734-11.371-8.9531-26.934-23.512-40.797-1.7227-1.6836-4.1016-9.0469-5.6953-13.918-4.0273-12.414-9.0273-27.867-22.777-35.598-6.5742-3.6797-11.391-14.062-15.27-22.41-7.5156-22.574-29.617-30.285-37.738-52.367-6.8828-14.43-15.473-32.375-41.18-38.984-17.945-4.6133-32.41-18.309-41.363-28.984-3.0938-3.6992-3.5898-8.9336-1.2617-13.332l10.637-20.012c35.578 28.16 138.45 119.42 203.59 277.42-2.8008 4.0117-7.7617 8.6055-14.613 6.2812zm412.64-250.38c-8.9727 10.691-23.438 24.391-41.383 29.004-25.707 6.6094-34.297 24.555-41.18 38.984-6.3711 19.168-23.938 25.785-33.016 42.809-5.5586 9.75-10.734 26.602-19.996 31.973-18.863 10.172-20.082 34.5-28.473 49.492-14.559 13.879-19.738 29.441-23.512 40.812-4.1016 12.305-5.6953 15.602-10.82 17.305-6.957 2.3242-11.848-2.3086-14.613-6.2812 65.148-158.02 168.02-249.26 203.59-277.42 3.9219 9.6914 17.59 24.367 9.3945 33.324z" fill="#492f28"/>
</svg>
