<?xml version="1.0" encoding="UTF-8"?>
<svg width="1200pt" height="1200pt" version="1.1" viewBox="0 0 1200 1200" xmlns="http://www.w3.org/2000/svg">
 <path d="m426.15 679.37c10.629 132.36 35.371 505.93 35.621 509.69 0.40625 6.1602 5.5234 10.945 11.691 10.945h88.422c6.1523 0 11.258-4.7578 11.691-10.895l26.43-375.54 26.414 375.54c0.42969 6.1367 5.5352 10.895 11.691 10.895h88.445c6.1719 0 11.285-4.7852 11.691-10.945 0.25-3.7578 24.992-377.33 35.598-509.69 11.082-138.27-7.543-185.45-77.359-270.99v-47.965c1.0742-12.5 14.75-30.66 29.219-49.879 25.285-33.59 56.758-75.395 46-120.93-0.089843-0.37891-0.19531-0.75391-0.32422-1.1211l-62.191-180.58c-1.6289-4.7305-6.0781-7.9023-11.078-7.9023h-28.707c-3.3477 0-6.5352 1.4297-8.7578 3.9336-2.2227 2.5-3.2734 5.832-2.8789 9.1562l13.148 111.8c-31.527 0.003906-48.785 7.6758-70.906 22.508-22.141-14.832-39.402-22.508-70.926-22.508l13.148-111.8c0.39062-3.3242-0.66016-6.6562-2.8789-9.1562-2.2305-2.5039-5.418-3.9336-8.7617-3.9336h-28.707c-5 0-9.4531 3.1719-11.082 7.9023l-62.184 180.58c-0.125 0.36719-0.23438 0.74219-0.32422 1.1211-10.758 45.535 20.711 87.336 46 120.93 14.469 19.215 28.141 37.379 29.219 49.879v47.965c-69.816 85.559-88.441 132.75-77.363 270.99zm24.828-483.83 59.262-172.1h7.168l-13.199 112.21c-0.40625 3.4414 0.73437 6.8867 3.1133 9.4141 2.3828 2.5234 5.7812 3.8633 9.2148 3.6562 39.312-2.3086 52.645 5.6562 76.762 22.477 0.074219 0.050781 0.15625 0.078125 0.23047 0.12891 0.35547 0.23828 0.73438 0.42578 1.1133 0.61719 0.32031 0.16797 0.63281 0.34766 0.96094 0.48438 0.32812 0.13281 0.66797 0.21875 1.0039 0.32031 0.39453 0.12109 0.78906 0.25391 1.1914 0.33594 0.30859 0.058593 0.625 0.066406 0.93359 0.10156 0.43359 0.050781 0.86328 0.10938 1.2969 0.10547 0.32812 0 0.65234-0.050781 0.98047-0.078125 0.41797-0.039063 0.83203-0.058594 1.2461-0.14062 0.33203-0.0625 0.64844-0.17969 0.97656-0.27344 0.40625-0.11719 0.8125-0.22266 1.2031-0.38281 0.29297-0.12109 0.57031-0.28516 0.85938-0.42969 0.40625-0.20703 0.8125-0.41016 1.1953-0.66406 0.070312-0.046875 0.14844-0.074219 0.21875-0.12109 24.098-16.82 37.422-24.789 76.738-22.473 3.4531 0.21484 6.8359-1.1328 9.2148-3.6562 2.3789-2.5234 3.5195-5.9688 3.1133-9.4141l-13.191-112.22h7.168l59.266 172.1c7.8281 34.66-18.656 69.84-42.039 100.9-14.234 18.906-26.887 35.715-31.809 51.809h-150.34c-4.9258-16.094-17.574-32.902-31.809-51.809-23.387-31.062-49.871-66.242-42.043-100.9zm299.5 481.95c-9.5898 119.68-30.707 436.12-34.895 499.07h-66.555l-37.332-530.8c-0.007813-0.12109-0.050781-0.23047-0.058594-0.34766-0.042969-0.42969-0.12891-0.83984-0.21875-1.2578-0.074219-0.34766-0.14062-0.69531-0.24219-1.0273-0.12109-0.39453-0.28516-0.76562-0.44531-1.1445-0.14062-0.32422-0.26953-0.64844-0.4375-0.95703-0.19531-0.35547-0.42578-0.6875-0.65234-1.0234-0.19531-0.28516-0.37891-0.57422-0.59766-0.83984-0.26172-0.32031-0.55859-0.60547-0.85156-0.89453-0.23828-0.23438-0.46875-0.47656-0.72656-0.6875-0.31641-0.26172-0.66016-0.48438-1.0039-0.71484-0.28516-0.19141-0.56641-0.38672-0.86719-0.55469-0.33984-0.18359-0.69922-0.33203-1.0586-0.48047-0.35156-0.14844-0.69922-0.30078-1.0703-0.41797-0.33984-0.10547-0.6875-0.16797-1.0391-0.24219-0.41797-0.085937-0.82812-0.17188-1.2617-0.21484-0.11328-0.015625-0.21875-0.050781-0.33594-0.058593-0.28906-0.023438-0.56641 0.023437-0.85547 0.023437-0.26562 0-0.51953-0.042969-0.78906-0.023437-0.10547 0.007812-0.20312 0.042968-0.30469 0.050781-0.48828 0.046875-0.95312 0.14062-1.4219 0.24219-0.28516 0.0625-0.57812 0.11328-0.85156 0.19922-0.45312 0.13672-0.88281 0.32031-1.3086 0.51172-0.27344 0.12109-0.54688 0.23047-0.80859 0.36719-0.39062 0.21094-0.75391 0.46094-1.1172 0.71094-0.25781 0.17969-0.52344 0.34766-0.76953 0.54688-0.32422 0.26562-0.61719 0.56641-0.91016 0.86328-0.23828 0.23828-0.47656 0.46484-0.6875 0.72656-0.25391 0.30859-0.47266 0.64062-0.69531 0.97656-0.19922 0.29688-0.40234 0.58984-0.57422 0.90234-0.17969 0.33203-0.32031 0.68359-0.46875 1.0273-0.15234 0.35937-0.30859 0.71484-0.42578 1.0898-0.10547 0.34375-0.17188 0.69922-0.24609 1.0508-0.085937 0.41406-0.17187 0.82031-0.21484 1.2461-0.011719 0.12109-0.050781 0.23047-0.058594 0.34766l-37.363 530.8h-66.531c-4.1875-62.945-25.305-379.39-34.918-499.07-10.457-130.51 5.793-172.77 71.273-253.21h11.953l-15.336 35.703c-2.5547 5.9453 0.19531 12.84 6.1445 15.391 1.5078 0.64844 3.0742 0.95312 4.6211 0.95312 4.543 0 8.8672-2.6562 10.773-7.0938l19.309-44.957h83.5l19.309 44.957c1.9062 4.4375 6.2305 7.0938 10.773 7.0938 1.543 0 3.1133-0.30859 4.6211-0.95312 5.9453-2.5547 8.6953-9.4453 6.1445-15.391l-15.336-35.703h11.953c65.477 80.414 81.727 122.68 71.266 253.21zm-101.07-276.65h-0.019531-98.766-0.066406-23.613v-29.16h146.1v29.16z" fill="#492f28"/>
</svg>
