<?xml version="1.0" encoding="UTF-8"?>
<svg width="1200pt" height="1200pt" version="1.1" viewBox="0 0 1200 1200" xmlns="http://www.w3.org/2000/svg">
 <path d="m664.31 1200h-128.63c-7.7344 0-14.062-6.3281-14.062-14.062 0-114.61-85.781-213-198.94-228.47-6.3281-0.70312-11.953-6.3281-11.953-13.359-2.8125-88.594 27.422-187.69 77.344-255.89-12.656-34.453-42.188-144.79-88.594-328.31-12.656-54.141-6.3281-104.77 16.172-132.84 11.25-14.062 26.016-21.797 41.484-21.797 16.875 0 43.594 9.1406 71.016 52.734 75.938 121.6 124.4 195.42 167.29 195.42 43.594 0 99.141-79.453 179.26-200.34 26.719-39.375 51.328-47.812 68.203-47.812 15.469 0 30.234 7.7344 41.484 21.797 22.5 28.125 28.125 78.75 16.172 132.14-33.047 131.44-73.125 285.42-88.594 329.02 49.922 68.203 80.156 167.29 77.344 255.89-0.70312 7.0312-5.625 12.656-12.656 13.359-113.2 15.469-198.24 113.91-198.24 228.47 0 7.7344-6.3281 14.062-14.062 14.062zm-114.61-28.125h100.55c6.3281-118.83 94.219-218.63 210.89-240.42 0-81.562-29.531-172.22-75.938-232.69-4.2188-4.9219-4.2188-11.25-0.70312-16.172 7.7344-15.469 51.328-181.36 88.594-329.72 12.656-54.141 2.1094-92.812-10.547-108.28-6.3281-7.7344-12.656-11.25-19.688-11.25-13.359 0-29.531 12.656-45 35.859-95.625 144.1-146.21 212.29-202.45 212.29-55.547 0-100.55-63.281-191.21-208.08-15.469-25.312-33.047-40.078-47.109-40.078-7.0312 0-14.062 3.5156-19.688 11.25-12.656 15.469-23.203 54.141-10.547 108.98 30.938 123 80.156 311.44 88.594 329.02 3.5156 4.9219 2.8125 11.953-0.70312 16.172-46.406 60.469-75.938 151.13-75.938 232.69 116.72 21.797 203.86 121.6 210.89 240.42z" fill="#492f28" fill-rule="evenodd"/>
 <path d="m871.69 892.78h-543.42c-4.2188 0-7.7344-1.4062-10.547-4.9219-2.8125-2.8125-3.5156-7.0312-3.5156-11.25 2.8125-19.688 7.0312-39.375 12.656-59.062 1.4062-6.3281 7.0312-10.547 13.359-10.547h519.52c6.3281 0 11.25 4.2188 13.359 10.547 4.9219 18.984 9.1406 37.969 11.953 56.953 0.70312 1.4062 0.70312 2.8125 0.70312 4.2188 0 7.7344-6.3281 14.062-14.062 14.062zm-526.55-28.125h509.68c-1.4062-9.8438-3.5156-19.688-6.3281-29.531h-497.02c-2.8125 9.8438-4.9219 19.688-6.3281 29.531z" fill="#492f28" fill-rule="evenodd"/>
 <path d="m817.6 634.08h-435.84c-6.3281 0-11.953-4.2188-13.359-10.547-4.9219-16.875-9.8438-36.562-15.469-56.953-1.4062-4.2188 0-9.1406 2.1094-12.656 2.8125-3.5156 7.0312-5.625 11.25-5.625h466.78c4.9219 0 8.4375 2.1094 11.25 5.625s3.5156 8.4375 2.8125 12.656c-5.625 20.391-10.547 40.078-15.469 56.953-2.1094 6.3281-7.7344 10.547-14.062 10.547zm-424.6-28.125h414.05c2.8125-9.1406 5.625-18.984 7.7344-29.531h-430.22c2.8125 10.547 5.625 20.391 8.4375 29.531z" fill="#492f28" fill-rule="evenodd"/>
 <path d="m830.26 758.53h-460.45c-4.9219 0-9.1406-2.8125-11.953-6.3281-2.1094-4.2188-2.8125-9.8438-0.70312-14.062 9.1406-18.281 19.688-35.156 30.938-50.625 0-2.8125 0.70312-5.625 2.1094-8.4375 2.8125-3.5156 7.0312-6.3281 11.953-6.3281h395.76c4.2188 0 9.1406 2.8125 11.25 6.3281 2.1094 2.8125 2.8125 5.625 2.8125 8.4375 10.547 14.766 20.391 30.938 29.531 48.516 1.4062 2.8125 2.8125 5.625 2.8125 8.4375 0 7.7344-6.3281 14.062-14.062 14.062zm-436.55-28.125h412.64c-6.3281-10.547-12.656-20.391-19.688-29.531h-373.26c-7.0312 9.1406-13.359 18.984-19.688 29.531z" fill="#492f28" fill-rule="evenodd"/>
 <path d="m323.39 254.48c-7.7344 0-14.062-6.3281-14.062-14.062v-226.36c0-7.7344 6.3281-14.062 14.062-14.062h56.25c7.7344 0 14.062 6.3281 14.062 14.062v212.29c0 7.7344-6.3281 14.062-14.062 14.062s-14.062-6.3281-14.062-14.062v-198.24h-28.125v212.29c0 7.7344-6.3281 14.062-14.062 14.062z" fill="#492f28" fill-rule="evenodd"/>
 <path d="m812.68 245.34c-7.7344 0-14.062-6.3281-14.062-14.062v-217.22c0-7.7344 6.3281-14.063 14.062-14.063h56.25c7.7344 0 14.062 6.3281 14.062 14.063v217.22c0 7.7344-6.3281 14.062-14.062 14.062s-14.062-6.3281-14.062-14.062v-203.16h-28.125v203.16c0 7.7344-6.3281 14.062-14.062 14.062z" fill="#492f28" fill-rule="evenodd"/>
</svg>
