<?xml version="1.0" encoding="UTF-8"?>
<svg width="1200pt" height="1200pt" version="1.1" viewBox="0 0 1200 1200" xmlns="http://www.w3.org/2000/svg">
 <path d="m1174.6 984.38-192.09-744.34c-6.0078-23.102-22.617-41.988-44.766-50.891l-155.71-62.289-48.195-48.191c-2.2891-2.2812-5.375-3.582-8.6055-3.6367-0.082031 0-0.15625-0.023438-0.23438-0.023438h-250c-0.078125 0-0.15625 0.023438-0.23438 0.023438-3.2305 0.054687-6.3164 1.3555-8.6055 3.6367l-48.188 48.188-155.71 62.289c-22.148 8.9062-38.762 27.789-44.766 50.895l-192.1 744.34c-1.6914 6.5664 2.1562 13.281 8.6719 15.145l175 50c6.6016 1.8945 13.496-1.8984 15.426-8.4922l38.008-129.23v188.2c0 6.9023 5.5977 12.5 12.5 12.5h650c6.9023 0 12.5-5.5977 12.5-12.5v-188.2l38.008 129.23c1.9297 6.5938 8.8242 10.387 15.426 8.4922l175-50c6.5156-1.8633 10.363-8.5781 8.6719-15.145zm-460.32-715.45 17.109 28.52v-0.003907c3.3867 5.6406 4.2188 12.449 2.2969 18.734-1.9258 6.2891-6.4258 11.465-12.383 14.246l-120.65 56.305 128.18-277.71 35.414 35.41 22.957 61.219h-0.003906c2.2773 6.0664 1.9102 12.809-1.0039 18.598-2.918 5.7891-8.1211 10.094-14.352 11.875l-50.277 14.367-0.003906-0.003906c-3.7344 1.0703-6.7617 3.8164-8.1875 7.4297-1.4258 3.6133-1.0898 7.6875 0.90625 11.02zm-227.66-11.02c-1.4258-3.6133-4.4531-6.3594-8.1914-7.4297l-50.277-14.367v0.003907c-6.2344-1.7812-11.438-6.0859-14.352-11.875-2.918-5.7891-3.2812-12.531-1.0078-18.598l22.957-61.219 35.414-35.41 115.06 249.32-8.4609 18.332-99.074-46.23c-5.957-2.7812-10.457-7.9609-12.379-14.25-1.9258-6.2852-1.0898-13.094 2.293-18.734l17.105-28.52c2-3.332 2.3359-7.4023 0.91016-11.02zm7.9102-157.91h210.93l-105.46 228.5zm-290.54 922.07-151.36-43.246 9.6328-37.32 152.6 43.602zm83.5-197.2v-312.37c0-6.9023-5.5977-12.5-12.5-12.5s-12.5 5.5977-12.5 12.5v310.7l-40.566 137.93-153.41-43.832 173.17-671.02c4-15.402 15.074-27.992 29.844-33.926l131.82-52.727-13.965 37.242h-0.003906c-4.7266 12.602-3.9688 26.609 2.0898 38.629 6.0586 12.02 16.867 20.961 29.812 24.66l34.609 9.8906-8.7266 14.543c-7.0273 11.711-8.7578 25.852-4.7656 38.91 3.9961 13.062 13.34 23.812 25.719 29.59l99.172 46.277-3.6445 7.8945c-0.015625 0.03125-0.023438 0.066406-0.039063 0.097656-0.24219 0.53516-0.44531 1.0859-0.60938 1.6445-0.023437 0.082032-0.042968 0.16406-0.0625 0.24609-0.13281 0.49609-0.23438 1-0.30469 1.5078-0.015625 0.097657-0.035157 0.19531-0.042969 0.29297h-0.003906c-0.058594 0.48047-0.085938 0.96484-0.089844 1.4492v675h-275zm637.5-324.87c-6.9023 0-12.5 5.5977-12.5 12.5v575h-325v-667.04l144.38-67.375c12.379-5.7734 21.723-16.527 25.719-29.586s2.2656-27.203-4.7617-38.914l-8.7305-14.543 34.609-9.8906c12.945-3.6953 23.754-12.637 29.812-24.656 6.0586-12.023 6.8164-26.027 2.0898-38.633l-13.965-37.242 131.82 52.727h-0.003906c14.77 5.9336 25.844 18.527 29.844 33.93l173.17 671.02-153.41 43.828-40.566-137.92v-310.7c0-3.3164-1.3164-6.4961-3.6602-8.8398s-5.5234-3.6602-8.8398-3.6602zm70.992 522.07-10.875-36.965 152.6-43.602 9.6328 37.32zm-358.49-559.57c0 5.0547-3.0469 9.6133-7.7148 11.547-4.6719 1.9375-10.051 0.86719-13.625-2.707-3.5742-3.5742-4.6445-8.9531-2.707-13.625 1.9336-4.668 6.4922-7.7148 11.547-7.7148 6.9023 0 12.5 5.5977 12.5 12.5zm0 137.5c0 5.0547-3.0469 9.6133-7.7148 11.547-4.6719 1.9375-10.051 0.86719-13.625-2.707-3.5742-3.5742-4.6445-8.9531-2.707-13.625 1.9336-4.668 6.4922-7.7148 11.547-7.7148 6.9023 0 12.5 5.5977 12.5 12.5zm0 137.5c0 5.0547-3.0469 9.6133-7.7148 11.547-4.6719 1.9375-10.051 0.86719-13.625-2.707-3.5742-3.5742-4.6445-8.9531-2.707-13.625 1.9336-4.668 6.4922-7.7148 11.547-7.7148 6.9023 0 12.5 5.5977 12.5 12.5zm0 137.5c0 5.0547-3.0469 9.6133-7.7148 11.547-4.6719 1.9375-10.051 0.86719-13.625-2.707-3.5742-3.5742-4.6445-8.9531-2.707-13.625 1.9336-4.668 6.4922-7.7148 11.547-7.7148 6.9023 0 12.5 5.5977 12.5 12.5zm0 137.5c0 5.0547-3.0469 9.6133-7.7148 11.547-4.6719 1.9375-10.051 0.86719-13.625-2.707-3.5742-3.5742-4.6445-8.9531-2.707-13.625 1.9336-4.668 6.4922-7.7148 11.547-7.7148 6.9023 0 12.5 5.5977 12.5 12.5zm225-562.5h-150c-6.9023 0-12.5 5.5977-12.5 12.5v150c0 4.1797 2.0898 8.082 5.5664 10.398 27.184 18.125 54.559 27.188 81.934 27.188s54.75-9.0625 81.934-27.188c3.4766-2.3164 5.5664-6.2188 5.5664-10.398v-150c0-3.3164-1.3164-6.4961-3.6602-8.8398s-5.5234-3.6602-8.8398-3.6602zm-12.5 155.66c-42 25.785-83 25.785-125 0v-130.66h125z" fill="#492f28"/>
</svg>
