<?xml version="1.0" encoding="UTF-8"?>
<svg width="1200pt" height="1200pt" version="1.1" viewBox="0 0 1200 1200" xmlns="http://www.w3.org/2000/svg">
 <path d="m982.03 715.64-68.672-471.42c-1.8281-12.422-8.8125-23.625-19.219-30.703l-41.531-28.219c-1.7344-12.797-9.75-24.141-21.797-29.719l-91.078-41.953-6-24.375c-1.0312-4.1719-3.9844-7.5938-7.9688-9.1875l-84.375-34.078h-0.046875l-0.1875-0.09375c-1.4531-0.60938-2.9531-0.79688-4.4531-0.84375-0.1875 0-0.32812-0.09375-0.51562-0.09375h-72.328c-0.1875 0-0.32812 0.09375-0.51562 0.09375-1.5 0.046875-3 0.28125-4.4531 0.84375l-0.1875 0.09375-84.422 34.078c-3.9844 1.5938-6.9375 5.0156-7.9688 9.1875l-6 24.375-91.078 41.953c-12.047 5.5312-20.109 16.922-21.797 29.719l-41.531 28.219c-10.406 7.0781-17.391 18.234-19.219 30.703l-68.672 471.42c-3.3281 22.922 11.719 44.953 34.266 50.203l102 23.719-26.016 111.75c-0.32812 1.4062-0.5625 2.8125-0.75 4.2656l-24.234 206.72c-1.2656 10.828 2.1562 21.75 9.4219 29.906s17.672 12.844 28.594 12.844h517.45c10.922 0 21.375-4.6875 28.594-12.844 7.2656-8.1562 10.688-19.078 9.4219-29.906l-24.234-206.68c-0.1875-1.4531-0.42188-2.8594-0.75-4.2656l-26.016-111.8 102-23.719c22.547-5.25 37.641-27.328 34.266-50.203zm-228.98-513.14c4.4062-3.1875 6.4219-8.7188 5.1094-13.969l-10.266-41.766 71.766 33.047c4.4531 2.0625 7.125 6.7031 6.7031 11.578l-40.312 449.58-166.13 47.812h-54.75l-34.078-12.422 5.9062-170.63 216.71-180.1c5.1562-4.2656 6.3281-11.719 2.7656-17.391l-47.016-74.062zm-178.08 576.71 15.375 45.328-26.906 79.266-25.078 8.7188-5.9531-7.9219 42.609-125.39zm-19.172-26.531-150.89-63.188 6.6094-28.359 140.76 51.328 8.5781 25.312zm25.641-37.219h30.797l64.266 189.19-5.9531 7.9219-25.125-8.7188-63.984-188.34zm57.469-4.4062 151.08-43.453 5.0156 21.656-144.37 56.438-11.766-34.594zm25.734-497.68c0.9375-2.1562 1.3125-4.5 1.0781-6.8438l-13.875-127.6 57.656 23.297 20.625 83.953-46.453 33.797c-5.6719 4.125-7.1719 12-3.4219 17.906l47.438 74.719-168.71 140.16 105.66-239.44zm-88.828-141.74h48.422l14.578 134.26-38.812 87.938-38.812-87.938 14.578-134.26zm-85.266 30.656 57.656-23.297-13.875 127.6c-0.23438 2.3438 0.09375 4.6875 1.0781 6.8438l50.062 113.44-25.781 58.359-87.328-72.562 47.438-74.719c3.75-5.9531 2.2969-13.781-3.4219-17.906l-46.453-33.797 20.672-83.953zm-110.2 77.531 71.766-33.047-10.266 41.766c-1.3125 5.25 0.70312 10.781 5.1094 13.969l43.594 31.688-47.016 74.062c-3.6094 5.6719-2.4375 13.125 2.7188 17.391l102.19 84.938-36.656 83.109s0 0.046876-0.046875 0.046876l-0.09375 0.1875c-0.65625 1.5-0.98438 3.0938-1.0781 4.6875 0 0.09375-0.046875 0.14062-0.046875 0.23437l-5.8125 167.95-91.5-33.375-39.609-441.98c-0.42188-4.875 2.25-9.5625 6.7031-11.578zm-122.06 560.06c-9.1406-2.1094-15.281-11.109-13.922-20.391l4.6406-31.734 93.656 22.688c1.0781 0.23438 2.1094 0.375 3.1406 0.375 6 0 11.484-4.0781 12.938-10.172 1.7344-7.1719-2.6719-14.391-9.8438-16.078l-96.094-23.25 60.188-413.21c0.75-5.0625 3.5625-9.6094 7.8281-12.469l28.266-19.219 38.344 427.82c0.09375 1.2656 0.046875 2.4844-0.28125 3.7031l-26.906 115.69-102-23.719zm587.76 168.79 24.234 206.72c0.375 3.3281-0.60938 6.5625-2.8594 9.0938s-5.3438 3.8906-8.6719 3.8906h-517.5c-3.375 0-6.4688-1.4062-8.6719-3.8906-2.25-2.5312-3.2344-5.7656-2.8594-9.0938l24.469-207.98 44.578-191.58 148.45 62.156-42.375 124.74c-1.4062 4.1719-0.65625 8.8125 1.9688 12.328l16.078 21.328c2.5781 3.4219 6.5625 5.2969 10.641 5.2969 1.4531 0 2.9531-0.23438 4.3594-0.75l40.406-14.062c3.8906-1.3594 6.9375-4.4062 8.25-8.2969l17.859-52.547 17.859 52.547c1.3125 3.8906 4.3594 6.9375 8.25 8.2969l40.453 14.062c1.4531 0.51562 2.9062 0.75 4.3594 0.75 4.125 0 8.0625-1.875 10.641-5.2969l16.078-21.328c2.6719-3.5156 3.375-8.1562 1.9688-12.328l-44.766-131.81 141.89-55.453zm-6.3281-145.08-26.906-115.69c-0.28125-1.2188-0.375-2.4375-0.28125-3.7031l38.344-427.87 28.266 19.219c4.2188 2.8594 7.0781 7.4062 7.7812 12.469l60.188 413.21-96.094 23.25c-7.1719 1.7344-11.531 8.9531-9.7969 16.078 1.4531 6.0938 6.9375 10.172 12.938 10.172 1.0312 0 2.1094-0.14062 3.1406-0.375l93.656-22.688 4.6406 31.734c1.3594 9.2812-4.7812 18.281-13.922 20.391l-102 23.719zm-252.37-251.95c-10.031 0-18.234 8.1562-18.234 18.234 0 10.031 8.1562 18.234 18.234 18.234 10.031 0 18.234-8.1562 18.234-18.234 0-10.031-8.1562-18.234-18.234-18.234zm0 26.625c-4.6406 0-8.4375-3.7969-8.4375-8.4375s3.7969-8.4375 8.4375-8.4375 8.4375 3.7969 8.4375 8.4375-3.7969 8.4375-8.4375 8.4375zm0 61.922c-10.031 0-18.234 8.1562-18.234 18.234 0 10.031 8.1562 18.234 18.234 18.234 10.031 0 18.234-8.1562 18.234-18.234 0-10.031-8.1562-18.234-18.234-18.234zm0 26.672c-4.6406 0-8.4375-3.7969-8.4375-8.4375s3.7969-8.4375 8.4375-8.4375 8.4375 3.7969 8.4375 8.4375-3.7969 8.4375-8.4375 8.4375z" fill="#492f28"/>
</svg>
