<?xml version="1.0" encoding="UTF-8"?>
<svg width="1200pt" height="1200pt" version="1.1" viewBox="0 0 1200 1200" xmlns="http://www.w3.org/2000/svg">
 <path d="m928.44 609.48c-10.078-29.641-27-60.48-28.32-92.281-1.8008-42-0.12109-84.48-0.23828-126.48-0.23828-84.84-0.71875-180.84-0.71875-192 17.281 0 24-8.2812 24-18v-97.441c0-9.7188-8.2812-18-18-18h-333.72c-9.7188 0-18 8.2812-18 18 0 32.52 0.35938 68.641 0 97.441-0.12109 11.879 8.0391 18 24 18v266.52 53.879c-0.60156 41.398-17.641 77.762-47.398 106.2-25.801 24.719-176.76 166.32-222.72 215.64-42.719 45.961-61.801 109.68-41.879 170.4 17.039 52.441 57.961 96.238 110.04 114.96 25.441 9.1211 53.281 10.801 79.68 4.9219 32.762-7.4414 57.719-27.359 81.961-49.441 57.84-52.922 109.32-111.72 163.44-168.36 25.922-27.121 50.039-57 85.68-70.922 29.762-11.641 61.559-18.238 89.52-34.441 32.641-18.961 54.48-51 63-87.602 8.3906-37.312 1.6719-75.352-10.328-110.99zm-339-446.76v-61.441h297.72v61.441h-297.72zm-100.08 913.2c-20.281 15.48-44.762 23.879-70.32 22.922-47.641-1.9219-89.398-35.879-110.64-76.922-21.121-40.68-18.961-87.359 2.6406-125.88 59.762 59.762 119.52 119.52 179.16 179.16-0.23828 0.11719-0.48047 0.47656-0.83984 0.71875zm265.44-258.12c-31.441 14.398-79.801 69.719-106.68 98.641-24.121 25.922-110.28 116.88-130.44 135.36-0.48047-0.60156-123.84-124.08-184.92-185.28 19.559-21.961 121.8-119.64 151.44-148.08 27.719-26.52 58.199-51.602 83.52-80.398 29.281-33.121 44.879-75 45.602-119.16v-320.4h249.84c0 70.441 0.71875 200.16 0.71875 242.64 0 33.48-3.3594 68.879 3.9609 101.88-56.281 23.52-93.602 74.879-111.48 132.72-13.078 42.598-20.52 99.117-1.5586 142.08zm132.72-68.039c-21.961 32.879-61.32 42.48-98.879 54.84-13.922-37.922-5.3984-93 1.5586-116.4 13.801-46.441 42.84-90.48 87.961-110.4 19.68 57.117 47.16 115.32 9.3594 171.96z" fill="#492f28"/>
</svg>
