<?xml version="1.0" encoding="UTF-8"?>
<svg width="1200pt" height="1200pt" version="1.1" viewBox="0 0 1200 1200" xmlns="http://www.w3.org/2000/svg">
 <path d="m969.05 517.13c-20.156-83.578-110.3-230.11-114.14-236.29-0.14062-0.23438-0.32812-0.46875-0.51562-0.70313-0.046875-0.046874-0.09375-0.14062-0.14062-0.1875-0.32812-0.42187-0.70312-0.79687-1.0781-1.125-33.375-30.141-83.391-70.734-123.66-94.266-21.703-12.703-37.828-18.891-49.359-18.891-14.672 0-24.422 4.0312-34.734 8.2969-13.547 5.5781-30.375 12.516-67.688 13.547-37.359 1.0312-49.219-2.0625-59.719-4.7812-8.1562-2.1094-16.547-4.3125-33.797-4.3125-12.938 0-31.5 8.25-56.859 25.172-43.5 29.062-91.453 73.453-93.469 75.328-0.09375 0.09375-0.14062 0.14063-0.23438 0.23438-0.14062 0.14062-0.28125 0.28125-0.375 0.42187-0.1875 0.1875-0.375 0.375-0.51562 0.60938l-0.046875 0.046874c-4.6406 6.2812-113.53 156-125.72 333.66-11.578 168.71-1.0312 324-0.046876 337.45-1.9219 15.328-6.375 61.453 7.7344 75.188 4.1719 4.0312 12.141 7.9219 37.5 7.9219 6.5625 0 14.297-0.28125 23.438-0.84375 23.156-1.5 44.438-4.3594 45.328-4.5 4.9688-0.65625 8.5312-5.1562 8.0625-10.125l-6-67.688 0.23438-17.156c2.3438-159.47 4.5938-310.92 50.297-387.19 0.23438 18.562 0.14063 39.984-0.65625 54.422-0.84375 15.609-1.875 31.781-3.1406 50.953-0.98438 14.625-2.0156 28.922-3.0469 42.938-1.4062 19.734-2.7656 38.391-3.9375 56.812-5.0156 76.734-6.4688 138.84 2.9062 192.56v0.09375c4.9219 28.172 12.469 52.453 23.109 74.156 1.5938 3.2344 4.875 5.25 8.4375 5.25 0.28125 0 0.5625 0 0.79687-0.046874 0.1875 0 19.734-1.6875 48.188-3.0938 20.062-0.98438 39.656-1.5938 58.312-1.7812 23.109-0.23438 44.438 0.14062 63.281 1.1719 15.844 0.84375 30.234 2.1094 42.797 3.7969 6.4688 0.84375 13.172 1.5938 20.578 2.25 20.062 1.7812 42.844 2.7656 67.734 2.8594h5.5312c18.516 0 38.297-0.42187 58.828-1.3125 35.484-1.5 61.172-3.8438 61.453-3.8906 4.7812-0.42188 8.4375-4.4062 8.5312-9.1875 0-0.28125 0.46875-31.031 0.89062-76.547 0.32813-34.547 0.65625-88.172 0.51563-147.32-0.09375-36.094-0.32813-66.75-0.70313-93.656-0.70312-52.172-1.9688-93.75-3.75-124.6 17.438 43.125 36.844 108.19 35.625 182.44-0.84375 76.547 10.547 172.87 11.812 183.28-0.23437 3.7031-1.1719 17.906-1.3125 33.188-0.32812 33.75 3.375 42.281 7.4062 46.5 2.3906 2.4844 5.4375 3.8438 8.7188 3.8438h0.32813c10.688-0.28125 95.438 0 96.328 0h0.046876c2.5781 0 5.0625-1.0781 6.8438-3s2.6719-4.5 2.4844-7.0781l-5.4375-74.062c-0.1875-16.828-3.9844-337.87-23.953-420.56zm-336.89-198.19c-0.46875 0.23438-0.9375 0.46875-1.3594 0.70312-1.5469 0.75-3.0469 1.4531-4.6406 2.1562-0.42188 0.1875-0.89062 0.375-1.3125 0.5625-1.2656 0.51562-2.4844 1.0312-3.75 1.5-0.46875 0.1875-0.9375 0.375-1.4062 0.51562-1.6406 0.60938-3.2812 1.125-4.9219 1.6406-0.23438 0.046875-0.42188 0.14062-0.65625 0.1875-1.5 0.42188-2.9531 0.84375-4.4531 1.2188-0.46875 0.09375-0.9375 0.23438-1.4062 0.32812-1.5 0.375-3.0469 0.70312-4.5469 0.98438-0.1875 0.046875-0.375 0.09375-0.60938 0.14062-1.6875 0.32812-3.375 0.5625-5.1094 0.79688-0.46875 0.046875-0.98438 0.14062-1.4531 0.1875-1.3125 0.14062-2.625 0.28125-3.9375 0.375-0.32812 0.046875-0.65625 0.046875-1.0312 0.09375v-32.344c0.14062 0 0.32812-0.046875 0.46875-0.09375 1.6875-0.23438 3.375-0.5625 5.0625-0.89062 0.1875-0.046875 0.32812-0.046875 0.51562-0.09375 1.875-0.42188 3.7031-0.89062 5.5312-1.4531l1.6875-0.5625c1.2656-0.42188 2.5312-0.84375 3.7969-1.3125 0.65625-0.23438 1.3594-0.51562 2.0156-0.79688 1.125-0.46875 2.2969-0.9375 3.4219-1.5 0.375-0.1875 0.75-0.28125 1.0781-0.46875l21.234 25.781-0.98438 0.5625c-1.125 0.60938-2.2031 1.2188-3.3281 1.7812zm-65.25 10.219c-0.60938-0.09375-1.2188-0.1875-1.8281-0.28125-1.9688-0.32812-3.8906-0.70312-5.8125-1.1719-0.14062-0.046875-0.28125-0.09375-0.46875-0.09375-1.9219-0.46875-3.8438-0.98438-5.7188-1.5-0.5625-0.14062-1.0781-0.32812-1.6406-0.46875-1.875-0.5625-3.75-1.1719-5.5781-1.8281-0.14062-0.046875-0.28125-0.09375-0.42188-0.14062-1.9688-0.70312-3.9375-1.5-5.9062-2.3438-0.51562-0.23438-1.0781-0.46875-1.5938-0.70312-1.7344-0.75-3.4688-1.5469-5.2031-2.3906-0.28125-0.14062-0.51562-0.23438-0.79688-0.375-1.9219-0.9375-3.7969-1.9688-5.7188-3-0.5625-0.28125-1.0781-0.60938-1.5938-0.9375-1.5938-0.89062-3.1875-1.875-4.7344-2.8594-0.28125-0.1875-0.5625-0.32812-0.84375-0.51562l23.062-22.5c1.4062 0.75 2.7656 1.5 4.1719 2.1562 0.32812 0.14062 0.60938 0.28125 0.9375 0.42188 1.4062 0.65625 2.8594 1.3125 4.3125 1.9219 0.375 0.14062 0.75 0.32812 1.125 0.46875 1.6875 0.65625 3.375 1.2656 5.0625 1.8281 0.32812 0.09375 0.65625 0.1875 0.9375 0.28125 1.5 0.46875 2.9531 0.89062 4.4531 1.2188l1.125 0.28125c1.7344 0.42188 3.4688 0.75 5.2031 1.0312 0.32812 0.046875 0.65625 0.09375 0.98438 0.14062 0.79688 0.14062 1.6406 0.23438 2.4375 0.375v31.828c-0.28125-0.046875-0.5625-0.09375-0.84375-0.09375-1.6875-0.1875-3.375-0.42188-5.0625-0.70312zm-122.76-114.19c16.594-10.594 27.094-15.047 33.516-16.828 0.65625 1.9219 1.3125 3.8438 1.9688 5.7656 0.046876 0.14062 0.09375 0.32812 0.1875 0.46875 0.65625 1.9219 1.3594 3.7969 2.0625 5.625 0.23438 0.65625 0.51563 1.3125 0.79688 1.9688 0.51562 1.3594 1.0781 2.6719 1.5938 3.9844 0.32812 0.75 0.60937 1.4531 0.9375 2.2031 0.51562 1.2188 1.0312 2.4375 1.5938 3.6094 0.32812 0.75 0.65625 1.4531 0.98437 2.2031l1.6875 3.5156c0.32813 0.70312 0.65625 1.3594 0.98438 2.0625 0.375 0.75 0.75 1.4531 1.125 2.2031l-30.375 17.297c-0.60938-0.98438-1.1719-1.9688-1.7812-2.9531-0.42188-0.70312-0.84375-1.4531-1.2656-2.2031-0.65625-1.125-1.2656-2.25-1.9219-3.4219-0.375-0.70312-0.75-1.3594-1.125-2.0625-0.65625-1.2656-1.3125-2.5312-1.9688-3.7969-0.32813-0.60938-0.60938-1.2188-0.9375-1.8281-0.75-1.4531-1.4531-2.9531-2.1562-4.4531-0.23438-0.46875-0.42188-0.89062-0.65625-1.3125-1.8281-3.9375-3.6094-7.9219-5.2969-12.047zm70.125 50.391c0.1875 0.23438 0.42187 0.46875 0.60937 0.65625 1.3125 1.4531 2.625 2.8125 3.9375 4.1719 0.51563 0.51562 1.0312 0.98438 1.5 1.5 1.0781 1.0781 2.2031 2.1094 3.3281 3.0938 0.51562 0.46875 1.0781 0.9375 1.5938 1.4062 0.375 0.32812 0.70312 0.65625 1.0781 0.9375l-22.734 22.172c-1.9219-1.5469-3.7969-3.1875-5.625-4.8281-0.375-0.32812-0.70313-0.65625-1.0781-1.0312-1.4531-1.3594-2.9531-2.7188-4.3594-4.125-0.5625-0.5625-1.125-1.125-1.6875-1.7344-1.2188-1.2188-2.4375-2.4844-3.6094-3.75-0.65625-0.65625-1.2656-1.3594-1.875-2.0625-1.125-1.2188-2.2031-2.4375-3.2812-3.7031-0.65625-0.75-1.3125-1.5-1.9219-2.25-1.0312-1.2656-2.0625-2.5312-3.0938-3.8438-0.65625-0.79688-1.2656-1.5938-1.875-2.3906-1.0312-1.3125-2.0156-2.7188-3.0469-4.0781-0.1875-0.23438-0.375-0.51562-0.5625-0.75l29.438-16.781c0.09375 0.09375 0.14063 0.23438 0.23438 0.32812 0.9375 1.4531 1.9219 2.8594 2.9062 4.2188l1.4062 1.9688c1.0312 1.3594 2.0156 2.7188 3.0469 4.0312 0.42188 0.51562 0.84375 1.0781 1.2188 1.5938 1.4531 1.7812 2.9062 3.5156 4.4062 5.2031zm167.11-59.766c0.9375-2.7656 1.875-5.5781 2.7188-8.4844 0-0.046875 0.046875-0.09375 0.046875-0.14062 0.89062-2.9062 1.6875-5.9062 2.4844-8.9062 0.14062-0.46875 0.23438-0.9375 0.375-1.4531 0.09375-0.375 0.1875-0.70312 0.28125-1.0781 5.5781 1.5 14.109 4.7812 26.719 11.766-0.046875 0.1875-0.09375 0.32812-0.14062 0.51562-0.42188 1.7344-0.89062 3.4688-1.3594 5.2031-0.14062 0.5625-0.28125 1.125-0.46875 1.6406-0.375 1.4062-0.79688 2.8125-1.1719 4.2188-0.1875 0.60938-0.375 1.2188-0.51562 1.8281-0.42188 1.4062-0.84375 2.7656-1.2656 4.125-0.1875 0.51562-0.32812 1.0781-0.51562 1.5938-0.5625 1.7344-1.125 3.4219-1.6875 5.0625-0.046875 0.14062-0.09375 0.23438-0.14062 0.375l-26.156-14.25c0.09375-0.28125 0.1875-0.5625 0.28125-0.79688 0.14062-0.42188 0.28125-0.84375 0.42188-1.3125zm-9.4219 80.859c-0.9375 1.125-1.875 2.2031-2.8125 3.2812-0.42188 0.46875-0.79688 0.9375-1.2188 1.3594-1.0781 1.1719-2.1562 2.3438-3.2344 3.4688l-0.84375 0.84375c-1.4062 1.4531-2.8594 2.8125-4.3125 4.1719-0.09375 0.09375-0.23438 0.1875-0.32812 0.32812-1.3125 1.2188-2.625 2.3906-3.9844 3.5625-0.375 0.32812-0.75 0.60938-1.125 0.9375-0.65625 0.5625-1.3594 1.125-2.0625 1.6406l-11.062-13.453-9.5156-11.578c1.125-0.84375 2.25-1.7344 3.375-2.6719 0.23438-0.1875 0.46875-0.375 0.65625-0.5625 0.98438-0.84375 1.9688-1.6875 2.9531-2.5781 0.375-0.32812 0.75-0.65625 1.0781-0.98438 0.89062-0.79688 1.7344-1.6406 2.625-2.4844 0.32812-0.32812 0.65625-0.60938 0.98438-0.9375 1.1719-1.1719 2.2969-2.3438 3.4219-3.5625 0.09375-0.14062 0.23438-0.23438 0.32812-0.375 0.98438-1.125 2.0156-2.25 3-3.375 0.32812-0.42188 0.70312-0.84375 1.0312-1.2188 0.32812-0.42188 0.65625-0.79688 0.98438-1.2188l23.812 20.672c-0.84375 1.125-1.6875 2.2031-2.5781 3.2812-0.375 0.46875-0.79688 0.9375-1.1719 1.4062zm19.5-29.109c-0.28125 0.46875-0.51562 0.98438-0.79688 1.5-1.4062 2.5312-2.8125 4.9688-4.2656 7.3594l-23.625-20.531c0.14062-0.23438 0.28125-0.46875 0.42188-0.70312 0.32812-0.5625 0.65625-1.0781 0.98438-1.6406 0.70312-1.1719 1.3594-2.3438 2.0625-3.5625l0.70312-1.2656c0.89062-1.5938 1.7344-3.1875 2.5781-4.8281 0.28125-0.51562 0.51562-1.0312 0.75-1.5469 0.60938-1.2188 1.2188-2.4375 1.7812-3.6562 0.28125-0.65625 0.60938-1.2656 0.89062-1.9219 0.1875-0.46875 0.42188-0.89062 0.60938-1.3125l26.391 14.344c-0.09375 0.23438-0.1875 0.46875-0.28125 0.65625-2.5781 5.9531-5.3438 11.672-8.2969 17.109zm-113.2-51.141c40.781-1.125 59.391-8.8125 74.344-14.953 5.5312-2.2969 10.172-4.2188 15.234-5.4375-0.51562 1.8281-0.98438 3.6562-1.5 5.4375-0.046875 0.09375-0.046875 0.23438-0.09375 0.32812-0.79688 2.625-1.6406 5.2031-2.4844 7.7344-0.1875 0.60938-0.42188 1.2188-0.65625 1.8281-0.89062 2.4844-1.7812 4.9219-2.7188 7.3125 0 0.046875-0.046875 0.09375-0.046875 0.09375-1.4531 3.6562-2.9531 7.2188-4.5469 10.594-11.156 23.906-25.828 41.672-42.938 51.703-1.2188 0.75-2.4844 1.4062-3.75 2.0625-7.5 3.8438-15.234 6.0938-23.062 6.75-1.3125 0.09375-2.625 0.1875-3.9375 0.1875h-0.60938c-12.188 0-24.094-3.8438-35.438-11.391-0.09375-0.09375-0.1875-0.14062-0.28125-0.1875-12.516-8.3906-23.719-21.047-33.375-37.547 0 0 0-0.046875-0.046875-0.09375 0-0.046875-0.046875-0.046875-0.09375-0.09375-1.2656-2.1562-2.4844-4.4062-3.6562-6.7031-0.28125-0.5625-0.60938-1.125-0.89062-1.7344-1.1719-2.2969-2.3438-4.6875-3.4219-7.0781v-0.046875c-1.125-2.4375-2.2031-4.9688-3.2344-7.5469-0.23438-0.60938-0.51562-1.2656-0.75-1.875-1.0312-2.5312-2.0156-5.1562-2.9531-7.7812 0-0.046875-0.046875-0.09375-0.046875-0.09375 6.5625 0.65625 11.062 1.8281 15.984 3.1406 11.672 3.0469 24.891 6.4688 64.922 5.3906zm-149.95 19.5c0.09375 0.23438 0.23438 0.46875 0.32812 0.75 1.4531 3.375 2.9531 6.6562 4.5 9.8906 0.14062 0.32812 0.32812 0.65625 0.46875 0.98438 1.4531 3 2.9531 5.9531 4.4531 8.8594 0.23438 0.46875 0.46875 0.9375 0.75 1.4062 1.5938 2.9531 3.2344 5.8594 4.9219 8.7188 0.375 0.65625 0.79688 1.3125 1.1719 2.0156 1.5938 2.6719 3.2344 5.2969 4.9219 7.875 0 0.046875 0.046875 0.09375 0.046875 0.14062 0.23438 0.42188 0.51562 0.79688 0.79688 1.1719 3.5625 5.4375 7.3594 10.641 11.25 15.609 11.109 14.109 23.391 26.25 36.797 36.188 11.297 8.3906 23.156 15.094 35.344 20.016 1.4062 0.5625 2.8594 1.125 4.2656 1.6406 0.32812 0.09375 0.60938 0.23438 0.9375 0.375 4.6406 1.6875 9.3281 3.0938 14.062 4.2188 9.4688 2.3438 19.078 3.6094 28.641 3.7969h2.2969c0.75 0 1.5-0.046875 2.2031-0.046875h0.70312c1.4531-0.046875 2.9531-0.09375 4.4062-0.1875h0.28125c1.5938-0.09375 3.1406-0.23438 4.6875-0.375h0.046875c6.4219-0.65625 12.797-1.8281 19.031-3.4688 1.5469-0.42188 3.0469-0.84375 4.5469-1.3125 0.046875 0 0.09375-0.046875 0.14062-0.046875 1.4531-0.46875 2.9062-0.9375 4.3594-1.4531 0.09375-0.046875 0.1875-0.046875 0.28125-0.09375l4.2188-1.5469c0.14062-0.046875 0.23438-0.09375 0.375-0.14062 1.3594-0.5625 2.7188-1.125 4.0781-1.6875 0.14062-0.046875 0.28125-0.14062 0.46875-0.1875 1.3594-0.60938 2.7188-1.2188 4.0781-1.875 0.14062-0.046875 0.28125-0.14062 0.375-0.1875 1.4062-0.70312 2.8594-1.4062 4.2656-2.1562 0.046875 0 0.09375-0.046875 0.09375-0.046875 4.3594-2.3438 8.625-4.9219 12.797-7.7812 15.094-10.406 28.641-24.188 40.312-40.969 4.1719-6 8.0625-12.422 11.719-19.219 4.7344-8.7188 9-17.953 12.797-27.75 1.1719-3.0469 2.2969-6.1875 3.4219-9.375 0.28125-0.79688 0.5625-1.5938 0.84375-2.4375 0.84375-2.5781 1.6875-5.1562 2.5312-7.7812 0.23438-0.75 0.46875-1.5469 0.70312-2.2969 0.9375-3.1406 1.875-6.3281 2.7188-9.6094 34.828 21.938 75.094 54.516 104.48 80.719-0.375 0.75-0.70312 1.5-1.0312 2.25-0.23438 0.5625-0.51562 1.0781-0.75 1.6406-0.51562 1.125-0.98438 2.25-1.5 3.4219-0.23438 0.5625-0.51562 1.1719-0.75 1.7812-0.46875 1.125-0.9375 2.2969-1.4062 3.4219-0.23438 0.60938-0.51562 1.2188-0.75 1.875-0.46875 1.125-0.89062 2.2969-1.3125 3.4688-0.23438 0.65625-0.51562 1.3125-0.75 1.9688-0.42188 1.1719-0.84375 2.3438-1.2188 3.5156-0.23438 0.70312-0.46875 1.3594-0.70312 2.0625-0.375 1.1719-0.79688 2.3906-1.1719 3.5625-0.23438 0.75-0.46875 1.4531-0.70312 2.2031-0.375 1.1719-0.75 2.3906-1.0781 3.6094-0.23438 0.75-0.46875 1.5469-0.70312 2.2969-0.32812 1.125-0.65625 2.2969-0.9375 3.4688-0.60938 2.2969-1.2656 4.5938-1.8281 6.9375l-0.42188 1.6875-0.98438 4.2188c-0.1875 0.70312-0.32812 1.4062-0.51562 2.1094-0.32812 1.4062-0.60938 2.8594-0.9375 4.3125-0.14062 0.70312-0.32812 1.4062-0.46875 2.1562-0.28125 1.4531-0.60938 2.9531-0.89062 4.4062-0.14062 0.75-0.28125 1.4531-0.42188 2.2031-0.28125 1.5-0.5625 3-0.84375 4.5469l-0.42188 2.25c-0.28125 1.5469-0.51562 3.0938-0.75 4.6406-0.14062 0.75-0.23438 1.5-0.375 2.25-0.23438 1.5938-0.46875 3.1875-0.70312 4.8281-0.09375 0.75-0.23438 1.5-0.32812 2.2969-0.23438 1.6406-0.46875 3.2812-0.65625 4.9219-0.09375 0.75-0.1875 1.5469-0.28125 2.2969-0.1875 1.6875-0.42188 3.375-0.60938 5.0625-0.09375 0.75-0.1875 1.5469-0.28125 2.2969-0.1875 1.7344-0.375 3.4688-0.5625 5.25-0.09375 0.75-0.14062 1.5469-0.23438 2.2969-0.1875 1.7812-0.32812 3.6094-0.51562 5.4375-0.046875 0.75-0.14062 1.5-0.1875 2.2969-0.14062 1.875-0.28125 3.7031-0.46875 5.5781-0.046875 0.75-0.09375 1.5-0.1875 2.25-0.14062 1.9219-0.28125 3.8438-0.375 5.8125-0.046875 0.70312-0.09375 1.4531-0.14062 2.1562-0.14062 2.0156-0.23438 4.0312-0.32812 6.0469-0.046875 0.70312-0.046875 1.4062-0.09375 2.0625-0.09375 2.0625-0.1875 4.1719-0.28125 6.2812-0.046875 0.65625-0.046875 1.3594-0.09375 2.0156-0.09375 2.1562-0.14062 4.3125-0.23438 6.5156 0 0.60938-0.046875 1.2188-0.046875 1.875-0.046875 2.25-0.09375 4.5469-0.14062 6.8438 0 0.5625 0 1.125-0.046875 1.6875-0.046875 2.3906-0.09375 4.7812-0.09375 7.1719v1.4062c0 2.5312-0.046875 5.0625 0 7.6406v0.9375c0 2.7188 0 5.4844 0.046875 8.2969v0.14062c0.14062 12.141 0.46875 24.75 1.0781 37.781 0 0.09375 0.046875 0.1875 0.046875 0.28125 0.046875 0.42188 0.09375 0.89062 0.1875 1.3125 3.1875 14.625 7.3594 57.094 9 176.11 0.375 26.812 0.60938 57.375 0.70312 93.422 0.14062 54.562-0.14062 104.34-0.42188 138.84-1.2188 0.14062-2.5781 0.28125-4.0312 0.42188-11.578 1.2188-30.516 3.0469-52.734 4.5469-23.484 1.5938-44.203 2.4375-63.328 2.6719h-0.09375c-11.578 0.1875-22.5 0.09375-32.672-0.1875-10.219-0.32812-19.688-0.89062-28.406-1.6875-1.7344-0.14062-3.5156-0.375-5.25-0.5625-0.79688-0.09375-1.6406-0.14062-2.4375-0.23438-2.5312-0.28125-5.0625-0.60938-7.5938-0.98438-11.016-1.5938-24.422-2.8125-39.891-3.6094-2.9531-0.14062-5.9531-0.28125-9.0469-0.42188-0.375 0-0.79688-0.046875-1.1719-0.046875-1.8281-0.09375-3.7031-0.14062-5.5781-0.1875-0.51562 0-1.0312-0.046875-1.5938-0.046875-1.9219-0.046875-3.8906-0.14062-5.8594-0.1875-0.42188 0-0.79688 0-1.2188-0.046875-4.9219-0.14062-9.9375-0.23438-15.141-0.28125h-0.32812c-2.4375-0.046875-4.875-0.046875-7.3594-0.09375h-1.2188c-2.4844 0-5.0156-0.046875-7.5938-0.046875h-1.8281c-5.0625 0-10.266 0.046875-15.562 0.09375-4.5469 0.046875-9.1875 0.09375-13.875 0.1875-17.719 0.28125-36.328 0.79688-54.562 1.5-23.812 0.89062-43.453 1.9688-54.188 2.5781h-0.32812c-7.5469-50.062-6.0469-108.47-1.3594-179.9 1.1719-18.328 2.5312-36.938 3.9375-56.672 1.0312-14.062 2.0625-28.406 3.0469-43.031 1.3125-19.266 2.2969-35.531 3.1875-51.188 1.2656-23.062 0.84375-63.328 0.046875-82.828 0.60938-9.7031 0.9375-19.406 0.98438-29.109v-1.5938c0-4.3594-0.046875-8.6719-0.14062-13.031-0.046875-1.6875-0.14062-3.375-0.1875-5.0156-0.09375-3.1875-0.23438-6.375-0.42188-9.5625-0.14062-2.1562-0.28125-4.2656-0.46875-6.4219-0.1875-2.7188-0.375-5.4844-0.60938-8.2031-0.1875-2.3438-0.46875-4.7344-0.70312-7.125-0.23438-2.5312-0.46875-5.0156-0.79688-7.5469-0.28125-2.5312-0.65625-5.0156-0.98438-7.5469-0.32812-2.3438-0.60938-4.7344-0.9375-7.0781-0.375-2.625-0.84375-5.25-1.2656-7.875-0.375-2.25-0.70312-4.5-1.125-6.7969-0.46875-2.6719-0.98438-5.3906-1.5-8.0625-0.42188-2.2031-0.84375-4.4062-1.2656-6.5625-0.5625-2.7188-1.1719-5.4844-1.7812-8.2031-0.46875-2.1562-0.9375-4.3125-1.4531-6.4219-0.65625-2.7656-1.3594-5.5312-2.0625-8.2969-0.51562-2.1094-1.0781-4.2188-1.6406-6.375-0.75-2.7656-1.5-5.5312-2.2969-8.3438-0.60938-2.1094-1.1719-4.2188-1.7812-6.3281-0.84375-2.7656-1.6875-5.5312-2.5312-8.3438-0.65625-2.1094-1.3125-4.2188-2.0156-6.3281-0.89062-2.7656-1.8281-5.5312-2.7656-8.25-0.75-2.1094-1.4531-4.2656-2.2031-6.375-0.98438-2.7188-1.9688-5.4375-3-8.1562-0.79688-2.1562-1.5938-4.3125-2.4375-6.4688-1.0312-2.6719-2.1094-5.3438-3.1875-8.0156-0.51562-1.3125-0.98438-2.5781-1.5469-3.8906 12.094-10.922 45.047-40.031 76.828-62.531zm66.844 774.71c-13.359 0.23438-27.141 0.65625-41.156 1.2656l-4.9688-43.875-1.0312-8.9531c10.406-0.375 20.906-0.65625 31.219-0.89062 0.75 0 1.5469-0.046875 2.2969-0.046875 1.8281-0.046875 3.6562-0.09375 5.4375-0.09375 3-0.046875 6.0469-0.09375 9-0.14062h0.1875l-0.42188 22.781-0.5625 30zm-267.56 12.469c-4.0312-4.4062-5.2031-27.797-2.8594-51.984h80.25l4.5 50.672c-35.625 4.3125-74.719 5.8125-81.891 1.3125zm76.828-79.125-0.14062 8.3906h-79.219c-2.25-35.625-9.7969-175.87 0.60938-327.05 9.7031-141.52 85.266-268.22 112.45-309.66 5.25 13.547 9.9844 27.094 14.062 40.688 0.28125 0.9375 0.5625 1.9219 0.84375 2.8594 1.0781 3.6562 2.1562 7.3125 3.1406 10.922 0.375 1.3594 0.70312 2.6719 1.0781 4.0312 0.84375 3.2812 1.6875 6.5156 2.4844 9.75 0.375 1.5469 0.75 3.0938 1.0781 4.6406 0.70312 3.0469 1.4062 6.1406 2.0625 9.1875 0.375 1.6406 0.70312 3.3281 1.0312 4.9688 0.60938 2.9531 1.1719 5.9062 1.7344 8.8594 0.32812 1.7344 0.65625 3.4688 0.9375 5.1562 0.51562 2.9062 0.98438 5.8125 1.4062 8.6719 0.28125 1.7812 0.5625 3.5156 0.79688 5.2969 0.42188 2.8594 0.79688 5.7656 1.1719 8.625 0.23438 1.7812 0.46875 3.5156 0.65625 5.2969 0.32812 2.9062 0.60938 5.8125 0.89062 8.7188 0.1875 1.7344 0.32812 3.4219 0.51562 5.1562 0.28125 3.0469 0.46875 6.0938 0.65625 9.1406 0.09375 1.5938 0.23438 3.1406 0.32812 4.6875 0.1875 3.6094 0.32812 7.2188 0.46875 10.828 0.046875 0.98438 0.09375 2.0156 0.14062 3 0.14062 4.5469 0.1875 9.0938 0.1875 13.641 0 1.6406-0.046875 3.2812-0.09375 4.9219-0.046875 2.9062-0.09375 5.8594-0.1875 8.7656-0.046875 2.0156-0.1875 4.0781-0.28125 6.0938-0.09375 2.0625-0.1875 4.0781-0.28125 6.0938-63.422 72.984-65.906 240.71-68.531 418.22zm98.438 70.969c-7.2188-15.891-12.75-33.375-16.828-53.062 9.5156-0.5625 24.75-1.3594 43.219-2.1094l6 53.062c-14.391 0.79688-25.734 1.5938-32.391 2.1094zm114.8-4.5h-3.7031l1.0312-52.781h12.844c3.375 0 6.7031 0.046875 9.9844 0.09375h0.70312c3.5156 0.046875 6.9375 0.09375 10.359 0.1875 0.5625 0 1.0781 0.046875 1.6406 0.046875 2.8594 0.046875 5.6719 0.14062 8.4375 0.23438 0.42188 0 0.79688 0 1.2188 0.046875l-1.0312 52.969c-12.891-0.51562-26.766-0.79688-41.438-0.79688zm60.141 1.7812 1.0312-53.203c0.79688 0.046875 1.6406 0.09375 2.4375 0.14062 0.75 0.046875 1.4531 0.09375 2.1562 0.14062 1.3594 0.09375 2.6719 0.1875 3.9844 0.28125 0.65625 0.046875 1.3125 0.09375 1.9219 0.14062 1.7812 0.14062 3.4688 0.28125 5.1562 0.375 0.9375 0.09375 1.8281 0.14062 2.7188 0.23438 0.84375 0.09375 1.6406 0.14062 2.4844 0.23438 0.9375 0.09375 1.9219 0.1875 2.8125 0.28125 0.70312 0.09375 1.4062 0.14062 2.1094 0.23438 0.9375 0.09375 1.875 0.1875 2.8125 0.32812 0.65625 0.09375 1.2656 0.14062 1.9219 0.23438 0.9375 0.09375 1.8281 0.23438 2.7188 0.32812 0.65625 0.09375 1.3125 0.1875 1.9688 0.28125 0.75 0.09375 1.5 0.1875 2.2031 0.28125 2.4375 0.375 4.9688 0.70312 7.5469 0.98438l-0.42188 23.109-0.5625 30.234c-3.375-0.375-6.5625-0.75-9.75-1.1719-10.594-1.4062-22.453-2.5312-35.25-3.375zm63.75 6.2812 1.0312-53.344c0.46875 0.046875 0.9375 0.046875 1.4062 0.09375h0.375c1.6875 0.09375 3.4219 0.1875 5.1562 0.28125 0.46875 0.046875 0.9375 0.046875 1.4062 0.09375 1.3594 0.09375 2.7656 0.14062 4.1719 0.1875 0.70312 0.046875 1.4531 0.046875 2.1562 0.09375 1.0312 0.046875 2.1094 0.09375 3.1875 0.09375 7.2656 0.23438 14.906 0.375 22.828 0.375h3.2344l0.32812 7.0781 2.25 46.969c-17.062-0.23438-33-0.89062-47.578-1.9688zm66.328 2.0625-0.42188-8.3906-2.2031-45.984c3.375-0.09375 6.7969-0.1875 10.266-0.28125h0.65625c6.9844-0.23438 14.203-0.5625 21.656-0.9375 0.375 0 0.75-0.046875 1.1719-0.046875 3.75-0.1875 7.5-0.42188 11.344-0.65625l2.6719 55.406c-15.656 0.5625-30.797 0.84375-45.188 0.89062zm106.73-4.4062c-8.8125 0.70312-24.047 1.7812-42.797 2.7188l-2.6719-55.875c19.688-1.5 36.094-3.0938 46.125-4.1719-0.23438 26.297-0.51562 46.641-0.65625 57.375zm9.9844-489.19c-0.51562-12.609-0.89062-24.797-0.98438-36.562v-0.32812c-0.046875-2.8594-0.046875-5.7188-0.046875-8.5312v-0.75c0-2.7188 0-5.3906 0.046875-8.0625v-0.75c0.046875-2.7188 0.046875-5.3906 0.09375-8.0625v-0.51562c0.28125-14.25 0.9375-27.75 1.9219-40.594 0-0.23438 0.046875-0.51562 0.046875-0.75 0.1875-2.25 0.375-4.4531 0.5625-6.6094 0.046875-0.42188 0.09375-0.84375 0.09375-1.2656 0.1875-2.0156 0.375-4.0312 0.5625-6 0.046875-0.46875 0.09375-0.98438 0.14062-1.4531 0.1875-1.9219 0.42188-3.8438 0.65625-5.7656 0.046875-0.46875 0.09375-0.98438 0.1875-1.4531 0.23438-1.9219 0.46875-3.8438 0.75-5.7656 0.046875-0.375 0.09375-0.79688 0.14062-1.1719 0.28125-2.1094 0.5625-4.2188 0.89062-6.2812 0-0.14062 0.046875-0.32812 0.046875-0.46875 0.70312-4.5469 1.4062-9 2.2031-13.312 0.046875-0.28125 0.09375-0.51562 0.14062-0.79688 0.32812-1.8281 0.70312-3.6094 1.0312-5.3906 0.09375-0.5625 0.23438-1.1719 0.375-1.7344 0.28125-1.4531 0.60938-2.8594 0.89062-4.3125 0.14062-0.70312 0.32812-1.4062 0.46875-2.1094 0.28125-1.2656 0.5625-2.5312 0.89062-3.75l0.5625-2.25c0.28125-1.1719 0.5625-2.3438 0.89062-3.4688 0.1875-0.75 0.42188-1.5469 0.60938-2.2969 0.28125-1.125 0.60938-2.2031 0.89062-3.2812 0.23438-0.79688 0.42188-1.5469 0.65625-2.3438 0.32812-1.0781 0.60938-2.1094 0.9375-3.1406 0.23438-0.75 0.46875-1.5469 0.70312-2.2969l0.98438-3.0938c0.23438-0.70312 0.46875-1.4531 0.70312-2.1562 0.5625-1.6406 1.125-3.2812 1.6875-4.875 0.32812-0.89062 0.65625-1.7344 0.98438-2.625 0.28125-0.75 0.5625-1.5469 0.84375-2.2969 0.375-0.9375 0.70312-1.8281 1.0781-2.7188 0.1875-0.51562 0.42188-1.0312 0.65625-1.5938 23.719 39.984 87 150.32 102.8 215.81 17.719 73.312 22.5 352.03 23.297 407.16h-78.75c-2.9531-25.781-11.531-107.25-10.828-173.44 1.875-116.11-44.625-210.66-59.953-238.55zm98.062 486.24c-10.688 0-20.109 0-25.781 0.046875-2.1094-8.9062-2.25-33.047-1.0312-55.547h79.078l4.0781 55.594c-13.219-0.046875-36.891-0.09375-56.344-0.09375z" fill="#492f28"/>
</svg>
