<?xml version="1.0" encoding="UTF-8"?>
<svg width="1200pt" height="1200pt" version="1.1" viewBox="0 0 1200 1200" xmlns="http://www.w3.org/2000/svg">
 <path d="m920.11 199.31-44.156-70.688c14.016-5.4375 24.047-18.984 24.047-34.875v-56.25c0-20.672-16.828-37.5-37.5-37.5h-525c-20.672 0-37.5 16.828-37.5 37.5v56.25c0 15.938 10.031 29.484 24.047 34.875l-44.156 70.688c-23.531 37.594-36.75 80.906-38.297 125.26-0.32812 8.7188-0.1875 17.625 0.42188 26.484l58.031 831.52c0.70312 9.8438 8.8594 17.438 18.703 17.438h225c9.7969 0 17.953-7.5469 18.703-17.344l37.547-500.72 37.547 500.72c0.75 9.7969 8.9062 17.344 18.703 17.344h225c9.8438 0 18-7.5938 18.703-17.438l58.031-831.52c0.60938-8.8594 0.75-17.766 0.42188-26.484-1.5469-44.344-14.812-87.656-38.297-125.26zm-57.609-105.56h-76.641l-12.516-56.25h89.109v56.25zm-262.45 0h-147.52l12.516-56.25h269.9l12.516 56.25zm-262.55-56.25h89.109l-12.516 56.25h-76.594zm583.08 310.92-56.812 814.08h-190.13l-54.938-732.66c-0.75-9.7969-8.9062-17.344-18.703-17.344s-17.953 7.5469-18.703 17.344l-54.938 732.66h-190.13l-56.812-814.08c-0.51562-7.5-0.65625-15.094-0.375-22.547 1.3125-37.781 12.609-74.672 32.625-106.69l54.984-87.938h39.141l-11.578 52.172c-2.25 10.125 4.125 20.109 14.25 22.359 1.3594 0.28125 2.7188 0.46875 4.0781 0.46875 8.5781 0 16.359-5.9531 18.281-14.672l13.406-60.328h137.06v37.5c0 10.359 8.3906 18.75 18.75 18.75s18.75-8.3906 18.75-18.75v-37.5h37.5v56.25c0 31.031-25.219 56.25-56.25 56.25-10.359 0-18.75 8.3906-18.75 18.75s8.3906 18.75 18.75 18.75c51.703 0 93.75-42.047 93.75-93.75v-56.25h62.062l13.406 60.328c1.9688 8.7188 9.7031 14.672 18.281 14.672 1.3594 0 2.7188-0.14062 4.0781-0.46875 10.125-2.25 16.5-12.281 14.25-22.359l-11.578-52.172h39.141l54.984 87.938c20.016 32.062 31.312 68.953 32.625 106.69 0.28125 7.4062 0.14062 15-0.375 22.5z" fill="#492f28"/>
 <path d="m412.5 300h-0.51562c-10.359 0.28125-18.516 8.9062-18.281 19.219l18.75 712.5c0.28125 10.172 8.625 18.281 18.75 18.281h0.51562c10.359-0.28125 18.516-8.9062 18.281-19.219l-18.75-712.5c-0.28125-10.172-8.625-18.281-18.75-18.281z" fill="#492f28"/>
 <path d="m787.97 300h-0.51562c-10.125 0-18.469 8.0625-18.75 18.281l-18.75 712.5c-0.28125 10.359 7.9219 18.984 18.281 19.219h0.51562c10.125 0 18.469-8.0625 18.75-18.281l18.75-712.5c0.28125-10.359-7.9219-18.984-18.281-19.219z" fill="#492f28"/>
</svg>
