<?xml version="1.0" encoding="UTF-8"?>
<svg width="1200pt" height="1200pt" version="1.1" viewBox="0 0 1200 1200" xmlns="http://www.w3.org/2000/svg">
 <path d="m600.1 528.42c-30.562-25.359-76.078-23.719-104.67 4.875-31.969 31.969-28.781 83.25 0.46875 110.53l63.938 59.156c22.594 20.906 57.984 20.906 80.578 0 86.016-79.594 59.25-54.469 64.406-59.625 30.328-30.328 30.328-79.734 0-110.06-28.828-28.781-74.25-30.234-104.72-4.875zm80.906 90.703-63.656 58.922c-9.6562 8.9531-24.797 8.9531-34.453 0l-63.656-58.922c-16.875-17.109-16.828-44.766 0.23438-61.828 17.109-17.109 44.906-17.109 62.016 0l6.6562 6.6562c6.6562 6.6094 17.391 6.6094 24 0 3.7031-2.7656 14.438-19.5 37.641-19.5 11.719 0 22.734 4.5469 31.031 12.844 17.016 17.062 17.062 44.719 0.1875 61.828z" fill="#492f28"/>
 <path d="m1160.5 294.24h-1120.7c-9.375 0-16.969 7.5938-16.969 16.969 1.7812 176.76-3.9375 172.92 4.9688 181.82 7.5469 7.5 11.109 3.6562 42.938 6.1875 1.2656 66.984 76.734 107.48 133.45 68.016 0.9375 54.75 51.609 94.078 105 81.094-18.938 51.516 14.297 106.36 68.578 113.53-48.141 54.703-9.9375 138.47 60.469 141 2.625 1.6875 5.7656 2.6719 9.1406 2.6719 320.86-1.0312 306.79 2.4375 314.76-2.6719 70.359-2.5312 108.61-86.297 60.469-141 54.422-7.2188 87.469-62.109 68.578-113.53 53.438 12.984 104.06-26.438 104.95-81.094 56.156 39.094 132.19-0.46875 133.45-68.016 14.109-1.125 22.641-1.125 30.938-1.2188 9.375 0 16.969-7.5938 16.969-16.969v-169.82c0-9.375-7.5938-16.969-16.969-16.969zm-16.969 33.984v50.953h-1086.8v-50.953zm-1038.6 175.26c31.219 5.3438 61.266 14.484 89.625 26.859-28.828 34.453-84.469 17.672-89.625-26.859zm134.58 50.109c26.766 16.078 51.469 35.297 73.641 57.094-39.094 21.141-84.375-14.016-73.641-57.094zm107.48 94.875c19.172 24.422 35.531 51.141 48.516 79.734-44.203 5.9531-74.109-43.266-48.516-79.734zm66.422 126.89c9 29.484 14.578 60.188 16.266 92.203-43.781-10.219-53.906-67.594-16.266-92.203zm357.05 92.25c1.6875-31.828 7.2188-62.531 16.266-92.203 16.641 10.828 27.562 81.938-16.266 92.203zm34.172-139.4c13.031-28.594 29.344-55.312 48.516-79.734 25.641 36.516-4.3125 85.688-48.516 79.734zm82.359-117.52c22.172-21.844 46.922-41.016 73.641-57.141 10.734 43.031-34.453 78.328-73.641 57.141zm118.59-80.344c28.359-12.422 58.406-21.516 89.625-26.859-5.1094 44.484-60.703 61.359-89.625 26.859zm-269.29 341.26h-272.39c-8.9062-223.13-188.44-398.76-407.21-407.26v-51.281h1086.8v51.281c-220.03 8.5781-398.34 185.44-407.21 407.26z" fill="#492f28"/>
</svg>
