<?xml version="1.0" encoding="UTF-8"?>
<svg width="1200pt" height="1200pt" version="1.1" viewBox="0 0 1200 1200" xmlns="http://www.w3.org/2000/svg">
 <path d="m1149.1 932.12-449.7-780.61c-19.395-35.152-56.969-56.969-98.184-56.969h-1.2109c-41.211 0-78.789 20.605-99.395 56.969l-448.48 780.61c-20.605 36.363-19.395 78.789 1.2109 113.94 20.605 35.152 56.969 55.758 98.184 55.758h899.39c41.211 0 77.574-21.816 99.395-56.969 19.391-35.152 19.391-77.574-1.2148-112.73zm-73.938 70.305c-2.4258 4.8477-10.91 14.547-25.453 14.547l-899.39-0.003906c-14.547 0-21.816-8.4844-24.242-13.332-4.8477-9.6953-4.8477-20.605 0-29.09l448.48-780.61c8.4844-13.332 21.816-14.547 26.668-14.547 4.8477 0 18.184 1.2109 25.453 14.547l449.7 780.61c6.0625 12.125 1.2109 23.031-1.2109 27.883z" fill="#fff"/>
 <path d="m597.57 807.27c-15.758 0-29.09 6.0625-40 16.969-10.91 10.91-16.969 24.242-16.969 38.789s6.0625 27.879 16.969 38.789c10.91 10.91 24.242 15.758 40 15.758 15.758 0 27.879-4.8477 38.789-15.758 10.91-10.91 15.758-23.031 15.758-38.789 0-14.547-4.8477-27.879-15.758-38.789-10.91-10.91-24.242-16.969-38.789-16.969z" fill="#fff"/>
 <path d="m598.79 387.88c-16.969 0-30.305 3.6367-40 12.121-9.6953 8.4844-14.547 24.242-14.547 46.062 0 12.121 1.2109 25.453 3.6367 40 2.4258 15.758 4.8477 35.152 8.4844 58.184 3.6367 24.242 7.2734 53.332 10.91 87.273 3.6367 31.516 6.0625 69.09 8.4844 113.94 0 6.0625 6.0625 12.121 13.332 12.121l16.973-0.003906c7.2734 0 13.332-4.8477 13.332-12.121 2.4258-44.848 6.0625-83.637 9.6953-115.15 3.6367-35.152 7.2734-64.242 10.91-87.273s6.0625-42.426 8.4844-58.184c2.4258-15.758 3.6367-29.09 3.6367-41.211 0-20.605-4.8477-35.152-14.547-43.637-9.6953-8.4805-23.027-12.117-38.785-12.117z" fill="#fff"/>
</svg>
